<?xml version="1.0" encoding="utf-8"?>
<!-- Generator: Adobe Illustrator 14.0.0, SVG Export Plug-In . SVG Version: 6.00 Build 43363)  -->
<!DOCTYPE svg PUBLIC "-//W3C//DTD SVG 1.1//EN" "http://www.w3.org/Graphics/SVG/1.1/DTD/svg11.dtd">
<svg version="1.1" id="Capa_1" xmlns="http://www.w3.org/2000/svg" xmlns:xlink="http://www.w3.org/1999/xlink" x="0px" y="0px"
	 width="686.992px" height="186.624px" viewBox="0 0 686.992 186.624" enable-background="new 0 0 686.992 186.624"
	 xml:space="preserve">
<g>
	<g>
		<g>
			<path fill="#333" d="M684.992,2v182.572l-340.528,0.072V2H684.992 M686.992,0H342.464v186.644l344.528-0.072V0L686.992,0z"/>
		</g>
		<g>
			<path fill="#333" d="M337.557,2v182.644H2V2.105L337.557,2 M339.557,0L0,0.106v186.538h339.557V0L339.557,0z"/>
		</g>
		<polygon fill="#333" points="387.213,121.582 389.881,121.582 384.239,128.669 384.239,136.629 382,136.629 382,128.669 
			376.356,121.582 378.997,121.582 383.091,126.759 387.213,121.582 		"/>
		<path fill="#333" d="M397.789,136.629v-15.047h5.158c2.081,0,3.727,0.306,4.938,0.92c1.212,0.615,2.177,1.521,2.892,2.714
			c0.717,1.192,1.073,2.497,1.073,3.906c0,1.007-0.197,1.969-0.592,2.889c-0.395,0.921-0.957,1.73-1.685,2.428
			c-0.745,0.72-1.61,1.262-2.597,1.629c-0.576,0.222-1.104,0.373-1.587,0.447c-0.481,0.075-1.401,0.114-2.759,0.114H397.789
			L397.789,136.629z M402.721,123.5h-2.739v11.208h2.804c1.096,0,1.946-0.072,2.552-0.22c0.606-0.147,1.112-0.333,1.518-0.562
			c0.403-0.225,0.776-0.506,1.112-0.837c1.079-1.076,1.621-2.441,1.621-4.087c0-1.618-0.556-2.939-1.666-3.959
			c-0.409-0.381-0.878-0.695-1.407-0.94c-0.531-0.245-1.032-0.406-1.507-0.484C404.535,123.539,403.772,123.5,402.721,123.5
			L402.721,123.5z"/>
		<polygon fill="#333" points="414.594,121.582 423.261,121.582 423.261,123.5 416.791,123.5 416.791,128.09 423.036,128.09 
			423.036,130.009 416.791,130.009 416.791,134.708 423.461,134.708 423.461,136.629 414.594,136.629 414.594,121.582 		"/>
		<path fill="#333" d="M425.705,136.629v-15.047h4.841c1.457,0,2.619,0.387,3.487,1.163c0.868,0.775,1.301,1.815,1.301,3.122
			c0,0.876-0.223,1.652-0.667,2.328c-0.445,0.672-1.054,1.162-1.827,1.467c-0.773,0.306-1.879,0.459-3.322,0.459h-1.618v6.508
			H425.705L425.705,136.629z M430.162,123.5h-2.263v4.699h2.394c0.89,0,1.577-0.206,2.058-0.618c0.481-0.411,0.72-1.001,0.72-1.769
			C433.07,124.271,432.1,123.5,430.162,123.5L430.162,123.5z"/>
		<path fill="#333" d="M444.737,121.359c2.361,0,4.324,0.737,5.892,2.211c1.568,1.474,2.352,3.319,2.352,5.539
			c0,2.222-0.79,4.059-2.375,5.513c-1.582,1.457-3.578,2.183-5.989,2.183c-2.302,0-4.218-0.726-5.75-2.183
			c-1.532-1.454-2.3-3.278-2.3-5.469c0-2.25,0.773-4.109,2.316-5.583C440.427,122.096,442.379,121.359,444.737,121.359
			L444.737,121.359z M444.82,123.411c-1.746,0-3.181,0.54-4.304,1.616c-1.126,1.078-1.685,2.452-1.685,4.126
			c0,1.624,0.562,2.975,1.69,4.051c1.126,1.076,2.539,1.616,4.232,1.616c1.701,0,3.122-0.548,4.259-1.649
			c1.137-1.098,1.707-2.466,1.707-4.104c0-1.593-0.57-2.934-1.707-4.023C447.876,123.956,446.478,123.411,444.82,123.411
			L444.82,123.411z"/>
		<path fill="#333" d="M455.739,136.629v-15.047h3.826c1.546,0,2.772,0.375,3.682,1.129c0.906,0.753,1.359,1.774,1.359,3.058
			c0,0.876-0.222,1.633-0.667,2.272c-0.442,0.637-1.081,1.115-1.91,1.432c0.49,0.314,0.965,0.748,1.432,1.292
			c0.467,0.548,1.124,1.499,1.969,2.856c0.531,0.856,0.959,1.498,1.279,1.93l0.81,1.078h-2.603l-0.667-0.992
			c-0.02-0.036-0.064-0.097-0.128-0.184l-0.425-0.592l-0.679-1.101l-0.731-1.176c-0.45-0.618-0.864-1.11-1.24-1.477
			c-0.375-0.364-0.715-0.628-1.018-0.79c-0.303-0.161-0.809-0.242-1.523-0.242h-0.57v6.553H455.739L455.739,136.629z
			 M458.589,123.411h-0.656v4.744h0.831c1.107,0,1.863-0.092,2.275-0.278c0.411-0.187,0.734-0.467,0.961-0.845
			c0.229-0.375,0.345-0.803,0.345-1.285c0-0.473-0.128-0.904-0.384-1.285c-0.253-0.384-0.612-0.656-1.073-0.814
			C460.424,123.492,459.66,123.411,458.589,123.411L458.589,123.411z"/>
		<polygon fill="#333" points="466.132,121.582 478.895,121.582 478.895,123.5 473.567,123.5 473.567,136.629 471.374,136.629 
			471.374,123.5 466.132,123.5 466.132,121.582 		"/>
		<polygon fill="#333" points="480.938,121.582 489.605,121.582 489.605,123.5 483.132,123.5 483.132,128.09 489.38,128.09 
			489.38,130.009 483.132,130.009 483.132,134.708 489.805,134.708 489.805,136.629 480.938,136.629 480.938,121.582 		"/>
		<path fill="#333" d="M378.036,112.842V97.794h5.158c2.083,0,3.729,0.306,4.941,0.921c1.212,0.617,2.174,1.521,2.892,2.713
			c0.715,1.196,1.073,2.497,1.073,3.907c0,1.006-0.197,1.969-0.592,2.889c-0.394,0.923-0.956,1.732-1.688,2.428
			c-0.744,0.72-1.608,1.262-2.594,1.629c-0.577,0.225-1.107,0.373-1.588,0.447c-0.482,0.078-1.403,0.114-2.761,0.114H378.036
			L378.036,112.842z M382.969,99.713h-2.739v11.211h2.805c1.096,0,1.946-0.075,2.553-0.222c0.606-0.147,1.111-0.333,1.516-0.562
			c0.406-0.225,0.777-0.503,1.112-0.834c1.082-1.079,1.621-2.444,1.621-4.09c0-1.618-0.554-2.938-1.665-3.959
			c-0.41-0.381-0.877-0.695-1.408-0.939c-0.529-0.245-1.032-0.406-1.506-0.484C384.784,99.752,384.021,99.713,382.969,99.713
			L382.969,99.713z"/>
		<polygon fill="#333" points="394.844,97.794 403.509,97.794 403.509,99.713 397.038,99.713 397.038,104.304 403.285,104.304 
			403.285,106.222 397.038,106.222 397.038,110.924 403.71,110.924 403.71,112.842 394.844,112.842 394.844,97.794 		"/>
		<polygon fill="#333" points="412.312,97.794 420.976,97.794 420.976,99.713 414.505,99.713 414.505,104.304 420.753,104.304 
			420.753,106.222 414.505,106.222 414.505,110.924 421.178,110.924 421.178,112.842 412.312,112.842 412.312,97.794 		"/>
		<path fill="#333" d="M423.53,112.842V97.794h5.161c2.08,0,3.725,0.306,4.938,0.921c1.213,0.617,2.174,1.521,2.892,2.713
			c0.714,1.196,1.073,2.497,1.073,3.907c0,1.006-0.198,1.969-0.592,2.889c-0.395,0.923-0.957,1.732-1.685,2.428
			c-0.748,0.72-1.61,1.262-2.597,1.629c-0.575,0.225-1.106,0.373-1.587,0.447c-0.484,0.078-1.401,0.114-2.761,0.114H423.53
			L423.53,112.842z M428.463,99.713h-2.736v11.211h2.803c1.095,0,1.946-0.075,2.553-0.222c0.605-0.147,1.112-0.333,1.518-0.562
			c0.403-0.225,0.776-0.503,1.112-0.834c1.078-1.079,1.621-2.444,1.621-4.09c0-1.618-0.556-2.938-1.665-3.959
			c-0.409-0.381-0.879-0.695-1.407-0.939c-0.531-0.245-1.032-0.406-1.507-0.484C430.279,99.752,429.514,99.713,428.463,99.713
			L428.463,99.713z"/>
		<path fill="#333" d="M450.974,97.794h2.197v8.544c0,1.157-0.087,2.03-0.259,2.619c-0.169,0.587-0.381,1.079-0.634,1.471
			c-0.25,0.389-0.559,0.74-0.923,1.048c-1.212,1.028-2.794,1.541-4.746,1.541c-1.991,0-3.587-0.509-4.791-1.529
			c-0.364-0.314-0.672-0.67-0.923-1.06c-0.253-0.392-0.459-0.873-0.623-1.44c-0.164-0.567-0.247-1.457-0.247-2.672v-8.522h2.193
			v8.544c0,1.416,0.164,2.397,0.492,2.95c0.331,0.553,0.829,0.999,1.502,1.332c0.669,0.334,1.462,0.501,2.374,0.501
			c1.298,0,2.358-0.333,3.173-1.001c0.431-0.359,0.742-0.784,0.931-1.273c0.189-0.486,0.284-1.324,0.284-2.508V97.794
			L450.974,97.794z"/>
		<path fill="#333" d="M469.347,109.356v2.36c-1.602,0.868-3.454,1.302-5.552,1.302c-1.705,0-3.15-0.336-4.337-1.012
			c-1.188-0.679-2.127-1.61-2.819-2.797c-0.692-1.187-1.04-2.472-1.04-3.854c0-2.194,0.792-4.04,2.377-5.536
			c1.588-1.496,3.542-2.247,5.867-2.247c1.604,0,3.387,0.415,5.35,1.237v2.316c-1.788-1.001-3.534-1.501-5.238-1.501
			c-1.751,0-3.203,0.548-4.36,1.635c-1.157,1.09-1.735,2.458-1.735,4.098c0,1.654,0.57,3.014,1.707,4.079s2.592,1.596,4.36,1.596
			C465.777,111.033,467.584,110.474,469.347,109.356L469.347,109.356z"/>
		<path fill="#333" d="M477.366,97.706h1.541l6.843,15.137h-2.238l-2.033-4.457h-6.509l-1.907,4.457h-2.25L477.366,97.706
			L477.366,97.706z M480.604,106.467l-2.48-5.453l-2.311,5.453H480.604L480.604,106.467z"/>
		<path fill="#333" d="M499.804,109.356v2.36c-1.605,0.868-3.454,1.302-5.553,1.302c-1.704,0-3.15-0.336-4.337-1.012
			c-1.19-0.679-2.129-1.61-2.822-2.797c-0.692-1.187-1.038-2.472-1.038-3.854c0-2.194,0.792-4.04,2.377-5.536
			c1.587-1.496,3.542-2.247,5.867-2.247c1.604,0,3.386,0.415,5.346,1.237v2.316c-1.785-1.001-3.531-1.501-5.238-1.501
			c-1.75,0-3.203,0.548-4.357,1.635c-1.157,1.09-1.735,2.458-1.735,4.098c0,1.654,0.57,3.014,1.707,4.079
			c1.134,1.065,2.589,1.596,4.36,1.596C496.233,111.033,498.041,110.474,499.804,109.356L499.804,109.356z"/>
		<polygon fill="#333" points="502.501,97.794 504.694,97.794 504.694,112.842 502.501,112.842 502.501,97.794 		"/>
		<path fill="#333" d="M515.561,97.572c2.358,0,4.324,0.737,5.892,2.211c1.568,1.473,2.353,3.319,2.353,5.541
			c0,2.219-0.79,4.057-2.375,5.514c-1.582,1.454-3.581,2.18-5.989,2.18c-2.302,0-4.218-0.726-5.75-2.18
			c-1.535-1.457-2.299-3.281-2.299-5.472c0-2.25,0.773-4.11,2.316-5.583C511.251,98.309,513.203,97.572,515.561,97.572
			L515.561,97.572z M515.641,99.625c-1.746,0-3.181,0.539-4.301,1.618c-1.124,1.076-1.688,2.453-1.688,4.124
			c0,1.624,0.564,2.975,1.69,4.051c1.129,1.079,2.539,1.616,4.235,1.616c1.702,0,3.123-0.548,4.26-1.646
			c1.137-1.101,1.708-2.469,1.708-4.106c0-1.593-0.57-2.934-1.708-4.023C518.7,100.169,517.298,99.625,515.641,99.625
			L515.641,99.625z M517.805,93.446l-2.463,3.246h-1.232l1.479-3.246H517.805L517.805,93.446z"/>
		<polygon fill="#333" points="538.633,97.794 540.715,97.794 540.715,112.842 538.828,112.842 528.623,101.253 528.623,112.842 
			526.563,112.842 526.563,97.794 528.339,97.794 538.633,109.481 538.633,97.794 		"/>
		<path fill="#333" d="M543.379,115.445v-0.398c0.329-0.309,0.559-0.617,0.689-0.929c0.131-0.314,0.206-0.736,0.231-1.276
			c-0.778-0.222-1.165-0.692-1.165-1.412c0-0.39,0.133-0.723,0.397-1.006c0.267-0.287,0.584-0.428,0.949-0.428
			c0.445,0,0.809,0.194,1.092,0.583c0.284,0.387,0.428,0.882,0.428,1.485c0,0.798-0.233,1.499-0.701,2.103
			C544.836,114.77,544.194,115.195,543.379,115.445L543.379,115.445z"/>
		<path fill="#333" d="M566.373,109.356v2.36c-1.604,0.868-3.453,1.302-5.553,1.302c-1.704,0-3.15-0.336-4.337-1.012
			c-1.188-0.679-2.13-1.61-2.819-2.797c-0.692-1.187-1.04-2.472-1.04-3.854c0-2.194,0.793-4.04,2.378-5.536
			c1.584-1.496,3.541-2.247,5.866-2.247c1.604,0,3.387,0.415,5.35,1.237v2.316c-1.788-1.001-3.534-1.501-5.241-1.501
			c-1.749,0-3.201,0.548-4.357,1.635c-1.156,1.09-1.734,2.458-1.734,4.098c0,1.654,0.569,3.014,1.707,4.079
			c1.137,1.065,2.588,1.596,4.359,1.596C562.804,111.033,564.61,110.474,566.373,109.356L566.373,109.356z"/>
		<path fill="#333" d="M579.687,97.794h2.19v8.544c0,1.157-0.084,2.03-0.256,2.619c-0.169,0.587-0.38,1.079-0.634,1.471
			c-0.25,0.389-0.559,0.74-0.923,1.048c-1.209,1.028-2.792,1.541-4.746,1.541c-1.991,0-3.588-0.509-4.791-1.529
			c-0.364-0.314-0.673-0.67-0.923-1.06c-0.251-0.392-0.459-0.873-0.623-1.44c-0.164-0.567-0.248-1.457-0.248-2.672v-8.522h2.197
			v8.544c0,1.416,0.164,2.397,0.492,2.95c0.327,0.553,0.828,0.999,1.499,1.332c0.67,0.334,1.462,0.501,2.374,0.501
			c1.299,0,2.357-0.333,3.175-1.001c0.429-0.359,0.74-0.784,0.929-1.273c0.189-0.486,0.287-1.324,0.287-2.508V97.794L579.687,97.794
			z"/>
		<polygon fill="#333" points="584.891,97.794 587.085,97.794 587.085,110.879 593.958,110.879 593.958,112.842 584.891,112.842 
			584.891,97.794 		"/>
		<polygon fill="#333" points="592.635,97.794 605.397,97.794 605.397,99.713 600.067,99.713 600.067,112.842 597.873,112.842 
			597.873,99.713 592.635,99.713 592.635,97.794 		"/>
		<path fill="#333" d="M618.076,97.794h2.193v8.544c0,1.157-0.086,2.03-0.259,2.619c-0.17,0.587-0.381,1.079-0.634,1.471
			c-0.25,0.389-0.559,0.74-0.924,1.048c-1.209,1.028-2.793,1.541-4.746,1.541c-1.99,0-3.586-0.509-4.79-1.529
			c-0.364-0.314-0.67-0.67-0.923-1.06c-0.25-0.392-0.459-0.873-0.623-1.44c-0.164-0.567-0.247-1.457-0.247-2.672v-8.522h2.196v8.544
			c0,1.416,0.164,2.397,0.491,2.95c0.329,0.553,0.826,0.999,1.499,1.332c0.671,0.334,1.463,0.501,2.375,0.501
			c1.299,0,2.357-0.333,3.175-1.001c0.429-0.359,0.739-0.784,0.93-1.273c0.188-0.486,0.286-1.324,0.286-2.508V97.794L618.076,97.794
			z"/>
		<path fill="#333" d="M623.348,112.842V97.794h3.826c1.546,0,2.771,0.375,3.681,1.129c0.907,0.754,1.359,1.774,1.359,3.059
			c0,0.876-0.222,1.632-0.667,2.272c-0.441,0.64-1.081,1.115-1.91,1.432c0.486,0.317,0.965,0.748,1.433,1.292
			c0.467,0.547,1.123,1.499,1.968,2.858c0.531,0.854,0.959,1.496,1.279,1.93l0.81,1.076h-2.603l-0.665-0.992
			c-0.021-0.036-0.066-0.098-0.134-0.184l-0.425-0.592l-0.676-1.101l-0.731-1.173c-0.453-0.62-0.864-1.112-1.239-1.477
			c-0.376-0.367-0.715-0.631-1.019-0.792c-0.303-0.161-0.809-0.242-1.523-0.242h-0.569v6.553H623.348L623.348,112.842z
			 M626.197,99.625h-0.655v4.746h0.828c1.109,0,1.865-0.095,2.277-0.281c0.411-0.187,0.733-0.467,0.962-0.846
			c0.228-0.375,0.345-0.803,0.345-1.284c0-0.473-0.128-0.901-0.384-1.285c-0.254-0.384-0.614-0.656-1.076-0.812
			C628.033,99.705,627.269,99.625,626.197,99.625L626.197,99.625z"/>
		<path fill="#333" d="M641.659,97.706h1.54l6.844,15.137h-2.239l-2.031-4.457h-6.51l-1.907,4.457h-2.249L641.659,97.706
			L641.659,97.706z M644.898,106.467l-2.48-5.453l-2.311,5.453H644.898L644.898,106.467z"/>
		<polygon fill="#333" points="390.165,74.007 392.233,74.007 392.233,89.056 390.039,89.056 390.039,77.347 385.343,83.164 
			384.937,83.164 380.187,77.347 380.187,89.056 377.992,89.056 377.992,74.007 380.097,74.007 385.146,80.188 390.165,74.007 		"/>
		<polygon fill="#333" points="395.525,74.007 397.72,74.007 397.72,89.056 395.525,89.056 395.525,74.007 		"/>
		<polygon fill="#333" points="413.226,74.007 415.309,74.007 415.309,89.056 413.423,89.056 403.216,77.466 403.216,89.056 
			401.156,89.056 401.156,74.007 402.932,74.007 413.226,85.693 413.226,74.007 		"/>
		<polygon fill="#333" points="418.579,74.007 420.772,74.007 420.772,89.056 418.579,89.056 418.579,74.007 		"/>
		<path fill="#333" d="M427.929,82.738l-1.663-0.996c-1.042-0.625-1.785-1.243-2.224-1.852c-0.442-0.606-0.662-1.307-0.662-2.099
			c0-1.187,0.417-2.152,1.251-2.894c0.834-0.74,1.918-1.11,3.253-1.11c1.276,0,2.447,0.354,3.512,1.062v2.45
			c-1.101-1.048-2.286-1.571-3.553-1.571c-0.715,0-1.302,0.161-1.76,0.489c-0.458,0.326-0.689,0.743-0.689,1.251
			c0,0.451,0.169,0.873,0.509,1.268c0.339,0.395,0.884,0.81,1.632,1.243l1.671,0.976c1.863,1.099,2.794,2.497,2.794,4.196
			c0,1.209-0.409,2.192-1.229,2.948c-0.823,0.756-1.888,1.134-3.2,1.134c-1.51,0-2.884-0.458-4.124-1.373v-2.737
			c1.179,1.474,2.547,2.211,4.099,2.211c0.684,0,1.257-0.189,1.713-0.564c0.453-0.379,0.681-0.852,0.681-1.419
			C429.939,84.431,429.27,83.558,427.929,82.738L427.929,82.738z"/>
		<polygon fill="#333" points="433.098,74.007 445.863,74.007 445.863,75.926 440.533,75.926 440.533,89.056 438.339,89.056 
			438.339,75.926 433.098,75.926 433.098,74.007 		"/>
		<polygon fill="#333" points="447.904,74.007 456.567,74.007 456.567,75.926 450.098,75.926 450.098,80.517 456.346,80.517 
			456.346,82.438 450.098,82.438 450.098,87.137 456.771,87.137 456.771,89.056 447.904,89.056 447.904,74.007 		"/>
		<path fill="#333" d="M459.192,89.056V74.007h3.826c1.546,0,2.772,0.375,3.678,1.131c0.91,0.751,1.363,1.771,1.363,3.056
			c0,0.875-0.223,1.632-0.667,2.271s-1.082,1.115-1.91,1.432c0.487,0.316,0.965,0.748,1.432,1.293
			c0.467,0.547,1.123,1.499,1.968,2.858c0.531,0.854,0.959,1.5,1.279,1.93l0.809,1.076h-2.602l-0.667-0.993
			c-0.02-0.036-0.064-0.094-0.13-0.183l-0.425-0.593l-0.676-1.099l-0.731-1.176c-0.453-0.62-0.865-1.112-1.24-1.477
			c-0.375-0.367-0.714-0.631-1.018-0.792c-0.303-0.162-0.812-0.242-1.524-0.242h-0.57v6.554H459.192L459.192,89.056z M462.043,75.84
			h-0.657v4.743h0.829c1.107,0,1.866-0.094,2.277-0.281c0.412-0.186,0.731-0.467,0.962-0.843c0.228-0.378,0.345-0.806,0.345-1.287
			c0-0.473-0.128-0.9-0.384-1.284c-0.255-0.384-0.614-0.656-1.076-0.812C463.877,75.917,463.11,75.84,462.043,75.84L462.043,75.84z"
			/>
		<polygon fill="#333" points="472.653,74.007 474.846,74.007 474.846,89.056 472.653,89.056 472.653,74.007 		"/>
		<path fill="#333" d="M485.712,73.788c2.358,0,4.324,0.734,5.892,2.208c1.568,1.474,2.352,3.32,2.352,5.542
			c0,2.218-0.79,4.056-2.375,5.514c-1.582,1.454-3.579,2.182-5.989,2.182c-2.302,0-4.218-0.728-5.75-2.182
			c-1.532-1.458-2.299-3.279-2.299-5.473c0-2.25,0.773-4.11,2.316-5.583C481.403,74.522,483.354,73.788,485.712,73.788
			L485.712,73.788z M485.796,75.84c-1.746,0-3.181,0.536-4.304,1.615c-1.124,1.076-1.686,2.452-1.686,4.124
			c0,1.624,0.562,2.975,1.691,4.051c1.125,1.079,2.536,1.619,4.231,1.619c1.702,0,3.123-0.551,4.26-1.649
			c1.137-1.101,1.708-2.469,1.708-4.104c0-1.596-0.57-2.936-1.708-4.023C488.852,76.382,487.453,75.84,485.796,75.84L485.796,75.84z
			"/>
		<path fill="#333" d="M187.385,113.991V97.964h5.493c2.216,0,3.971,0.326,5.261,0.981c1.291,0.653,2.319,1.619,3.081,2.889
			c0.76,1.273,1.142,2.658,1.142,4.16c0,1.073-0.211,2.099-0.631,3.078c-0.419,0.981-1.018,1.843-1.796,2.586
			c-0.792,0.767-1.713,1.346-2.764,1.735c-0.614,0.239-1.177,0.398-1.69,0.479c-0.515,0.081-1.493,0.119-2.939,0.119H187.385
			L187.385,113.991z M192.638,100.008h-2.917v11.939h2.986c1.168,0,2.073-0.081,2.72-0.236c0.645-0.158,1.183-0.356,1.614-0.598
			c0.432-0.242,0.827-0.54,1.185-0.89c1.151-1.151,1.726-2.602,1.726-4.354c0-1.724-0.59-3.131-1.772-4.218
			c-0.437-0.406-0.936-0.739-1.499-1c-0.564-0.259-1.098-0.431-1.604-0.518C194.571,100.05,193.759,100.008,192.638,100.008
			L192.638,100.008z"/>
		<polygon fill="#333" points="205.284,97.964 214.514,97.964 214.514,100.008 207.623,100.008 207.623,104.896 214.274,104.896 
			214.274,106.939 207.623,106.939 207.623,111.947 214.729,111.947 214.729,113.991 205.284,113.991 205.284,97.964 		"/>
		<polygon fill="#333" points="223.888,97.964 233.117,97.964 233.117,100.008 226.224,100.008 226.224,104.896 232.878,104.896 
			232.878,106.939 226.224,106.939 226.224,111.947 233.331,111.947 233.331,113.991 223.888,113.991 223.888,97.964 		"/>
		<path fill="#333" d="M239.873,107.262l-1.771-1.06c-1.109-0.667-1.899-1.326-2.369-1.971c-0.471-0.648-0.706-1.393-0.706-2.238
			c0-1.265,0.445-2.291,1.334-3.081c0.89-0.79,2.043-1.185,3.464-1.185c1.359,0,2.605,0.378,3.739,1.134v2.608
			c-1.172-1.115-2.433-1.674-3.784-1.674c-0.761,0-1.385,0.172-1.874,0.52c-0.489,0.347-0.734,0.792-0.734,1.334
			c0,0.481,0.181,0.932,0.541,1.352c0.362,0.42,0.942,0.859,1.74,1.321l1.779,1.04c1.985,1.17,2.977,2.661,2.977,4.471
			c0,1.288-0.437,2.333-1.311,3.136c-0.873,0.807-2.009,1.21-3.407,1.21c-1.607,0-3.071-0.49-4.392-1.462v-2.917
			c1.256,1.571,2.713,2.357,4.365,2.357c0.731,0,1.338-0.2,1.824-0.603c0.484-0.403,0.727-0.906,0.727-1.51
			C242.015,109.064,241.301,108.138,239.873,107.262L239.873,107.262z"/>
		<path fill="#333" d="M246.643,113.991V97.964h5.155c1.553,0,2.792,0.412,3.714,1.237c0.923,0.826,1.385,1.935,1.385,3.326
			c0,0.934-0.236,1.76-0.71,2.477c-0.474,0.72-1.122,1.24-1.945,1.565c-0.823,0.326-2.002,0.489-3.54,0.489h-1.724v6.932H246.643
			L246.643,113.991z M251.39,100.008h-2.411v5.005h2.553c0.945,0,1.676-0.22,2.188-0.659c0.513-0.437,0.77-1.064,0.77-1.882
			C254.49,100.828,253.456,100.008,251.39,100.008L251.39,100.008z"/>
		<path fill="#333" d="M262.497,97.87h1.641l7.288,16.121h-2.383l-2.164-4.746h-6.934l-2.033,4.746h-2.394L262.497,97.87
			L262.497,97.87z M265.948,107.198l-2.643-5.805l-2.459,5.805H265.948L265.948,107.198z"/>
		<path fill="#333" d="M286.131,97.964h2.219v16.026h-2.007l-10.872-12.342v12.342h-2.194V97.964h1.892l10.962,12.448V97.964
			L286.131,97.964z M284.487,93.591c-0.007,0.926-0.224,1.649-0.651,2.168c-0.326,0.403-0.733,0.606-1.221,0.606
			c-0.427,0-1-0.153-1.719-0.458c-0.722-0.306-1.266-0.459-1.63-0.459c-0.2,0-0.375,0.079-0.522,0.231
			c-0.147,0.153-0.237,0.381-0.267,0.687H277.5c0.124-1.076,0.349-1.796,0.677-2.158c0.326-0.364,0.739-0.545,1.237-0.545
			c0.451,0,1.188,0.203,2.206,0.606c0.521,0.206,0.895,0.312,1.121,0.312c0.217,0,0.403-0.075,0.555-0.225
			c0.151-0.15,0.254-0.403,0.308-0.765H284.487L284.487,93.591z"/>
		<path fill="#333" d="M297,97.87h1.639l7.289,16.121h-2.384l-2.164-4.746h-6.935l-2.032,4.746h-2.393L297,97.87L297,97.87z
			 M300.451,107.198l-2.643-5.805l-2.459,5.805H300.451L300.451,107.198z"/>
		<path fill="#333" d="M196.184,82.307h5.462v6.799c-2.003,0.859-3.99,1.287-5.961,1.287c-2.693,0-4.845-0.776-6.456-2.327
			c-1.611-1.555-2.417-3.468-2.417-5.745c0-2.397,0.834-4.394,2.502-5.99c1.667-1.593,3.758-2.391,6.271-2.391
			c0.916,0,1.785,0.097,2.606,0.292c0.823,0.195,1.863,0.553,3.12,1.074v2.349c-1.939-1.112-3.864-1.668-5.772-1.668
			c-1.777,0-3.274,0.598-4.492,1.793c-1.218,1.196-1.826,2.664-1.826,4.404c0,1.824,0.608,3.314,1.826,4.474
			c1.218,1.157,2.785,1.735,4.7,1.735c0.931,0,2.044-0.208,3.34-0.631l0.221-0.067v-3.342h-3.125V82.307L196.184,82.307z"/>
		<path fill="#333" d="M212.999,73.94c2.512,0,4.603,0.784,6.274,2.355c1.671,1.568,2.508,3.534,2.508,5.9
			c0,2.363-0.844,4.321-2.53,5.873c-1.687,1.549-3.813,2.325-6.38,2.325c-2.451,0-4.492-0.776-6.124-2.325
			c-1.632-1.552-2.448-3.493-2.448-5.828c0-2.394,0.822-4.376,2.466-5.945C208.408,74.725,210.486,73.94,212.999,73.94
			L212.999,73.94z M213.086,76.126c-1.86,0-3.387,0.576-4.583,1.721c-1.197,1.148-1.794,2.614-1.794,4.396
			c0,1.727,0.6,3.165,1.8,4.313c1.2,1.149,2.704,1.722,4.509,1.722c1.812,0,3.324-0.584,4.536-1.755
			c1.212-1.17,1.818-2.627,1.818-4.371c0-1.699-0.606-3.128-1.818-4.288C216.34,76.707,214.852,76.126,213.086,76.126
			L213.086,76.126z"/>
		<path fill="#333" d="M230.155,90.204h-5.511V74.177h4.265c1.343,0,2.393,0.178,3.146,0.534s1.328,0.845,1.725,1.468
			c0.395,0.622,0.594,1.345,0.594,2.163c0,1.577-0.827,2.706-2.484,3.387c1.189,0.22,2.134,0.704,2.836,1.443
			c0.705,0.742,1.055,1.629,1.055,2.661c0,0.82-0.212,1.549-0.641,2.191c-0.427,0.643-1.054,1.168-1.881,1.571
			C232.433,90.001,231.398,90.204,230.155,90.204L230.155,90.204z M228.984,76.221h-2.003v4.818h1.55
			c1.242,0,2.124-0.233,2.648-0.701s0.786-1.07,0.786-1.813C231.965,76.991,230.973,76.221,228.984,76.221L228.984,76.221z
			 M229.158,83.083h-2.177v5.078h2.294c1.272,0,2.136-0.098,2.589-0.292c0.454-0.195,0.819-0.5,1.094-0.912
			c0.277-0.413,0.413-0.857,0.413-1.33c0-0.489-0.145-0.937-0.437-1.34c-0.291-0.406-0.704-0.706-1.24-0.907
			C231.162,83.183,230.315,83.083,229.158,83.083L229.158,83.083z"/>
		<polygon fill="#333" points="238.079,74.177 240.416,74.177 240.416,90.204 238.079,90.204 238.079,74.177 		"/>
		<polygon fill="#333" points="244.003,74.177 253.233,74.177 253.233,76.221 246.342,76.221 246.342,81.109 252.994,81.109 
			252.994,83.155 246.342,83.155 246.342,88.161 253.448,88.161 253.448,90.204 244.003,90.204 244.003,74.177 		"/>
		<path fill="#333" d="M256.027,90.204V74.177h4.075c1.646,0,2.952,0.4,3.919,1.204c0.966,0.801,1.449,1.888,1.449,3.256
			c0,0.932-0.236,1.738-0.709,2.419c-0.473,0.681-1.151,1.19-2.037,1.524c0.521,0.339,1.03,0.798,1.526,1.379
			c0.496,0.581,1.196,1.596,2.096,3.043c0.566,0.912,1.022,1.596,1.363,2.054l0.86,1.148h-2.769l-0.71-1.057
			c-0.024-0.039-0.07-0.103-0.141-0.194l-0.453-0.631l-0.72-1.173l-0.778-1.252c-0.481-0.659-0.921-1.182-1.32-1.574
			c-0.4-0.389-0.762-0.67-1.084-0.839c-0.321-0.173-0.862-0.259-1.624-0.259h-0.606v6.979H256.027L256.027,90.204z M259.061,76.126
			h-0.698v5.052h0.884c1.179,0,1.987-0.098,2.426-0.297c0.438-0.198,0.779-0.498,1.022-0.898c0.245-0.4,0.367-0.857,0.367-1.368
			c0-0.506-0.137-0.962-0.407-1.371c-0.271-0.409-0.652-0.698-1.146-0.865C261.017,76.212,260.201,76.126,259.061,76.126
			L259.061,76.126z"/>
		<polygon fill="#333" points="283.265,74.177 285.483,74.177 285.483,90.204 283.474,90.204 272.604,77.861 272.604,90.204 
			270.411,90.204 270.411,74.177 272.302,74.177 283.265,86.625 283.265,74.177 		"/>
		<path fill="#333" d="M296.928,73.94c2.511,0,4.603,0.784,6.274,2.355c1.671,1.568,2.506,3.534,2.506,5.9
			c0,2.363-0.842,4.321-2.53,5.873c-1.686,1.549-3.812,2.325-6.38,2.325c-2.45,0-4.492-0.776-6.124-2.325
			c-1.633-1.552-2.447-3.493-2.447-5.828c0-2.394,0.821-4.376,2.465-5.945C292.337,74.725,294.414,73.94,296.928,73.94
			L296.928,73.94z M297.014,76.126c-1.859,0-3.387,0.576-4.583,1.721c-1.196,1.148-1.794,2.614-1.794,4.396
			c0,1.727,0.6,3.165,1.801,4.313c1.2,1.149,2.703,1.722,4.507,1.722c1.811,0,3.325-0.584,4.536-1.755
			c1.212-1.17,1.818-2.627,1.818-4.371c0-1.699-0.606-3.128-1.818-4.288C300.27,76.707,298.78,76.126,297.014,76.126L297.014,76.126
			z"/>
	</g>
	<path fill-rule="evenodd" clip-rule="evenodd" fill="#333" d="M95.598,26.989c1.195,0.015,1.195,0.015,1.195,1.062
		c0,1.233,0,1.233-1.195,1.233c-0.308,0-0.466,0.315-0.254,0.443c1.972,1.181,2.273,3.04,1.877,5.221
		c0.366,0.084,0.506-0.628,0.915-0.432c0.622,0.58,0.924-0.603,1.246-0.881c0.343-0.364,0.751-0.193,1.073,0.043
		c0.195,0.192,0.238,0.579,0.582,0.579c0.428-0.408,0.793-1.179,1.438-0.878c0.536,0.257,0.622,0.878,0.922,1.33
		c0.259-0.042,0.171-0.299,0.259-0.451c0.342-0.386,0.858-0.75,1.438-0.514c0.557,0.321,0.643,0.945,0.88,1.437
		c0.471-0.169,0.75-0.492,1.288-0.513c0.558,0.042,1.074,0.3,1.396,0.814c0.086,0.259,0.021,0.559,0.257,0.73
		c0.409-0.15,0.794-0.538,1.288-0.3c0.494,0.322,0.687,0.837,0.515,1.374c-0.042,0.322-0.363,0.622-0.106,0.943
		c0.579-0.557,1.804-0.105,1.909-1.201c0.496-0.408,1.27-0.58,1.913-0.194c0.193,0.065,0.214,0.452,0.515,0.41
		c0.299-0.345,0.515-0.729,0.966-0.816c0.471-0.024,1.01-0.043,1.202,0.406c0.43,0.41,0.772-0.318,1.181-0.472
		c0.215-0.106,0.579,0,0.816,0.109c0.537,0.341,0.341,1.094,0.836,1.437c0.644-0.299,1.224-0.987,2.061-0.708
		c0.517,0.365,0.451,1.225,0.666,1.632c0.731-0.257,1.61-0.794,2.426-0.299c0.751,0.515-0.773,2.81,0.967,1.695
		c0.429-0.064,0.966,0.043,1.179,0.515c0.322,0.407-0.149,0.837,0,1.246c-0.213,0.107-0.429,0.429-0.557,0.667
		c0.236,0.365,0.557-0.022,0.814-0.044c0.494,0,1.009,0.108,1.203,0.601c0.108,0.645-0.323,1.203-0.623,1.717
		c0.387,0.279,1.16,0.193,1.289,0.862c0.171,0.641-0.216,1.245-0.666,1.651c0.366,0.536,0.366,1.375,0.196,2.017
		c-0.067,0.388-0.346,0.708-0.367,1.139c0.794,0.645,0.429,1.848,0.516,2.726c-0.064,0.258-0.366,0.451-0.602,0.517
		c-0.838-0.28-1.802-0.173-2.577,0.259c-2.275,2.101-2.06,5.58-5.065,7.148c-0.645,0.257-1.246,0.622-1.954,0.771
		c-0.237,0.43-0.172,0.97-0.258,1.46c-0.236,0.473-0.472,1.053-1.03,1.331c0.042,0.667,1.03,1.203,0.365,1.912
		c-0.494,0.321-1.376,0.343-1.396,1.14c0.449,0.47,0.709,1.115,0.514,1.802c-0.214,0.514-0.75,0.603-1.18,0.813
		c-1.203,0.496-2.663,0.668-3.865,1.29l0.106,0.149c4.639,0.088,9.963-0.021,15.288,0l0.021,23.295l0.191,0.15
		c2.834-1.309,5.925-2.062,9.126-2.467l0.148-0.259V82.541c-0.75-0.451-1.2-1.289-1.331-2.017c-0.149-0.818,1.075-1.225,0.709-2.019
		c-0.365-0.667-1.289-0.688-1.545-1.333l0.064-4.484l0.45-0.108h2.32c0.43-0.151,0.064-0.558,0.107-0.771
		c-0.965-0.691-2.577-0.753-3.029-2.148c-0.32-0.839,0.194-1.59,0.602-2.234c0.729-1.159,2.427-0.407,2.898-1.738
		c0.881-0.837,2.041-0.967,3.199-1.096c0.13-0.277,0.238-0.599,0.559-0.77c0.364-0.086,0.965-0.086,1.03,0.363
		c-0.043,0.217,0.065,0.344,0.215,0.471c1.61,0.108,3.33,0.368,4.015,1.956c0.901,0.298,1.974,0.537,2.512,1.502
		c0.387,0.75,0.042,1.61-0.345,2.253c-0.729,0.774-1.651,1.396-2.488,1.87c-0.066,0.257,0.235,0.234,0.365,0.297
		c0.857-0.15,2.06,0.088,2.725,0v4.232c0.065,0.601-0.644,0.921-1.03,1.288c-0.236,0.235-0.558,0.514-0.515,0.925
		c0.363,0.363,0.579,0.792,0.622,1.287c-0.15,0.73-0.429,1.502-1.138,1.91c0,4.187,0.043,8.331-0.043,12.152l0.151,0.257
		c1.61,0.665,3.177,1.482,4.594,2.641c1.353,2.339,0.172,5.194-0.772,7.363c-1.008,1.463-2.717,2.706-4.197,3.651v6.696
		c-0.152,0.518,0.333,0.925,0.784,1.035c1.802,0.793,3.993,1.996,3.863,4.334c-0.021,1.696-0.257,3.544-1.997,4.379
		c-0.471,0.515-0.255,1.699-1.179,1.656c-0.43-0.474-0.945-0.988-1.095-1.611c-0.065-0.106-0.172-0.106-0.259-0.152l-0.148,10.007
		c0.43,0.407,1.136,0.708,1.244,1.374c-0.021,0.771-0.108,1.503-0.687,2.019c0.387,0.773,2.019,1.072,1.396,2.21l-0.043,2.211
		c0.343,0.538,1.16,0.321,1.739,0.516c0.643,0.257,1.396,0.065,1.718,0.774c0.021,0.665,0.193,1.521-0.172,2.06
		c-0.235,0.192-0.622,0.192-0.858,0c-3.864-1.206-7.644,0.835-11.658-0.153c-1.933-0.298-4.123-0.364-6.119,0.26
		c-0.772,0.15-1.717,0.342-2.534,0.408c-0.558-0.365-0.236-1.053-0.256-1.632c0.15-0.41,0.042-1.117,0.664-1.138
		c0.771-0.107,1.417-0.471,2.169-0.621l0.151-0.26c0.086-1.115-0.494-2.685,0.515-3.456c0.279-0.43,1.03-0.622,0.773-1.225
		c-0.237-0.236-0.386-0.558-0.45-0.879c-0.044-1.03,0.827-1.63,1.491-2.319v-18.098c-1.868-0.925-4.134-2.491-4.583-4.682
		c-0.495-1.653-0.322-3.499,0.665-4.851c1.054-1.331,2.48-2.189,3.918-2.984V99.03c-0.601-0.386-0.954,0.063-1.599,0
		c-2.706,0.58-5.217,1.631-7.578,3.026l-0.152,0.259l-0.214,27.374c0.344,5.237-0.473,10.691-4.165,14.513
		c-4.271,4.572-9.985,6.46-15.566,7.943c-7.729,1.716-15.478,2.253-23.078,0.73c-5.946-1.137-11.852-2.941-16.854-6.613
		c-5.067-4.444-7.3-10.693-6.806-17.456l0.106-2.724l0.107-12.883L60.779,101.5c-2.898-1.485-5.946-2.495-9.21-2.834l-0.214,0.192
		l-0.043,4.958c0.322,0.493,1.03,0.517,1.546,0.772c1.396,0.645,3.154,1.804,3.09,3.609c0,2.103,0.517,4.679-1.651,6.032
		c-0.904,0.646-1.805,1.31-2.792,1.804l-0.086,0.192v18.098c0.581,0.41,1.246,1.053,1.223,1.849
		c-0.043,0.622-0.45,1.138-0.923,1.544c0.28,0.622,1.053,0.818,1.438,1.332c0.279,1.074,0.109,2.318,0.152,3.456
		c0.922,0.667,2.125,0.667,3.195,0.924c0.217,0.621,0.217,1.332,0.217,2.017c-0.515,0.646-1.353,0.517-2.126,0.303
		c-2.189-1.247-4.958-1.117-7.364-0.517c-1.717,0.28-2.897,0.171-4.786-0.084c-2.083-0.837-4.252-0.687-6.226,0.255
		c-1.31,0-0.453-1.246-0.774-2.017c0.085-0.236,0.259-0.429,0.515-0.513c0.773,0,1.632-0.39,2.513-0.475l0.257-0.344
		c0.065-1.073-0.171-2.252,0.215-3.198c0.558-0.321,1.31-0.471,1.589-1.14c-0.452-0.191-0.859-0.664-1.138-1.073
		c-0.129-0.556,0-1.115,0.257-1.544c0.429-0.322,0.795-0.387,1.137-0.776l-0.041-11.956c-0.022-0.494,0.041-1.182-0.151-1.61
		c-0.365,0.128-0.516,0.364-0.838,0.578c0.258,0.817,0.58,1.61,0.516,2.578c0.106,0.988-0.494,1.781-1.139,2.362
		c-0.343,0.128-0.6-0.192-0.708-0.45c0.149-0.966-0.149-1.784-0.88-2.32c-0.472-0.064-0.923-0.237-1.181-0.688
		c-0.194-1.631-0.708-3.822,0.302-5.239c1.223-1.071,2.725-1.417,3.97-2.381l0.044-7.152c-0.452-0.407-1.333-0.428-1.805-0.986
		c-2.297-2.105-3.908-4.532-4.531-7.429c0.194-1.61,2.019-2.964,3.308-3.907c0.965-0.645,2.135-1.113,3.122-1.714
		c0.044-3.865,0.054-7.797,0.011-11.941c-0.793-0.666-1.524-1.502-1.137-2.619c0-0.322,0.494-0.449,0.472-0.773l-1.588-1.651
		c-0.13-1.569-0.022-3.224,0.085-4.703c0.988-0.128,2.19,0.106,3.05-0.192c-0.064-0.41-0.214-0.904-0.666-0.988
		c-0.989-0.303-1.932-1.096-2.126-2.168c-0.086-1.03,0.472-1.74,1.287-2.147c0.387-0.153,0.708-0.386,1.139-0.432
		c0.6-1.265,1.975-1.739,3.091-2.061c0.365-0.084,0.859,0.152,1.095-0.299c-0.042-0.299,0.194-0.407,0.409-0.559
		c0.451-0.064,0.902-0.149,1.181,0.26c-0.043,1.114,1.395,0.385,2.019,0.814c0.836,0.452,1.63,1.094,2.146,1.912
		c0.729,0.128,1.716,0.256,2.062,1.071c0.3,0.517,0.321,1.246,0.106,1.805c-0.215,0.471-0.558,0.965-0.967,1.245
		c-0.622,0.45-1.546,0.686-1.608,1.59l0.148,0.149c0.882,0.043,1.653,0.043,2.533,0.062c0.044,1.44,0.172,3.115-0.106,4.424
		c-0.539,0.581-1.009,1.157-1.439,1.759c0,0.346,0.387,0.687,0.473,1.075c0.064,0.838-0.149,1.634-0.944,2.02
		c-0.042,4.51-0.017,6.658,0,11.229c0.495,0.405,1.116,0.236,1.653,0.365c2.641,0.407,5.152,1.224,7.579,1.995l0.107-0.257V71.912
		h15.995l0.17-0.364c-1.072-0.471-2.294-0.493-3.433-0.965c-0.839-0.388-1.957-0.388-2.384-1.396
		c-0.171-0.43-0.171-1.052,0.151-1.395c0.149-0.173,0.493-0.346,0.213-0.624c-0.536-0.536-2.017-0.364-1.653-1.481
		c0.365-0.278,0.752-0.472,0.882-0.881c-0.28-0.579-1.203-0.813-1.332-1.542l-0.107-1.248c-2.921-0.6-5.09-3.306-5.668-6.118
		c-0.387-0.796-0.774-2.019-1.869-2.127c-1.051-0.343-2.382,0.625-2.875-0.771c-0.153-1.097,0.427-2.063,1.18-2.836
		c-0.237-0.535-0.646-1.223-0.193-1.801c0.063-0.196,0.449-0.347,0.342-0.558l0.366-0.259c-0.45-0.407-1.117-0.193-1.288-0.988
		c-0.237-0.646,0.343-0.986,0.729-1.33c0.151-0.17,0.516-0.023,0.516-0.366c-0.322-0.299-0.708-0.665-0.73-1.138
		c-0.021-0.407,0.193-0.707,0.515-0.965c0.365-0.106,0.859,0.021,1.095-0.323c-0.386-0.366-0.558-0.901-0.471-1.374
		c0.149-0.429,0.493-0.706,0.923-0.772c0.45,0.021,0.837,0.236,1.246-0.064c-0.15-0.43,0-0.837,0.256-1.18
		c0.451-0.429,1.16-0.494,1.74-0.301c0.344-0.518-0.084-1.267,0.686-1.502c0.774-0.236,1.631-0.259,2.255,0.3
		c0.343-0.603,0.924-1.377,1.762-1.377c0.88-0.278,1.394,1.032,2.104,0c0.771-0.298,1.308,0.024,1.867,0.559
		c0.535-0.21,1.029-0.664,1.695-0.407c0.215,0.196,0.602,0.215,0.668,0.558c0.085,0.409-0.045,1.096,0.557,1.096
		c0.43-0.065,0.708,0.279,1.094,0.3c0.11-0.558-0.493-1.59,0.3-1.912c0.474-0.299,1.096-0.064,1.611,0
		c0.258-0.235,0.106-0.473,0.258-0.771c0.257-0.43,0.688-0.666,1.116-0.774c0.644-0.32,1.354,1.439,1.396,0
		c-0.13-0.386,0.194-0.751,0.516-0.816c0.838-0.493,1.76,1.459,2.06-0.214c0.387-0.258,0.839-0.558,1.354-0.367
		c0.515,0.045,0.407,0.731,0.859,0.774c0.449-0.344,0.901-0.965,1.61-0.857c0.365-0.022,0.642,0.192,0.878,0.408
		c0.408,0.386-0.257,1.223,0.559,1.288c0.215,0.043,0.684-0.063,0.94-0.082c-0.366-2.169,0.111-4.041,2.045-5.221
		c0.065-0.258-0.038-0.42-0.274-0.443c-1.181,0-1.181,0-1.181-1.233c0-1.046,0-1.046,1.181-1.046c0-1.209,0.364-1.209,1.262-1.209
		C95.275,25.795,95.598,25.783,95.598,26.989 M91.546,37.284c0.021,0.365-0.108,0.643-0.257,0.943l-0.301,1.956
		c-3.113,0.019-6.354,0.042-8.652,2.167c-1.18,0.732-1.782,1.912-2.834,2.92c-0.3,0.066-0.516-0.278-0.623-0.513
		c-0.365-1.205-0.881-2.601-0.149-3.803c1.867-3.113,5.238-4.207,8.543-4.378C88.67,36.576,90.28,36.661,91.546,37.284z
		 M110.482,40.441c0.858,1.695-0.345,3.305-0.666,4.896c-0.364,0.062-0.044,0.321-0.364,0.451c-0.258-1.076-1.354-1.934-2.275-2.663
		c-2.514-1.784-5.519-2.941-8.805-2.643c-0.472-0.966-0.771-2.016-1.03-3.09c0.708-0.582,1.718-0.366,2.513-0.668
		c3.585-0.364,7.342,0.282,9.897,2.835L110.482,40.441z M93.884,46.634c-0.809-0.417-0.809-0.564-1.502-2.057
		c0,0,0.291-3.865,0.967-6.368c0,0,0.31-0.953,0.989-0.953c0.715,0,0.944,0.953,0.944,0.953c0.398,2.29,0.773,4.168,1.052,6.396
		c-0.736,1.491-0.736,1.739-1.375,2.062c-0.193,0.156-0.622,1.167,0.639,1.167c0,0-0.747,2.16-0.551,3.277
		c0.364,0.686,1.008,0,1.5,0c0.602-0.281,1.419-0.795,2.019-0.367c-0.128,0.367-0.493,0.774-0.214,1.183
		c0.342,0.43,0.965-0.233,1.396,0.213c-0.171,0.474-0.751,0.622-1.182,0.772c-0.321,0.152-0.257,0.475-0.257,0.773
		c-0.365,0.259-0.837,0.325-1.288,0.304c-0.753-0.044-1.202-0.949-2.019-0.625c-0.473,0.258-0.536,0.817-0.408,1.289
		c0.322,1.287,1.417,2.727,2.835,2.941c1.073,0.213,2.082-0.041,2.834-0.772c0.386-0.537,0.9-0.989,0.879-1.697
		c-0.364-0.343-0.516-0.858-0.364-1.354c0.041-0.254,0.364-0.384,0.558-0.513c0.236-0.065,0.345,0.129,0.515,0.213
		c0.452,0.518-0.021,1.16,0.065,1.699c-0.172,0.192-0.387,0.472-0.366,0.771c0,1.16,1.223,1.718,2.105,2.127
		c1.137,0.257,2.146-0.325,2.79-1.202c0.773-0.69,0.752-1.806,1.074-2.727c-0.237-0.818-1.268-0.539-1.954-0.667
		c-0.278,0.086-0.621,0.046-0.923,0.046c-0.064-0.259,0.065-0.477-0.064-0.774c-0.216-0.238-0.624-0.343-0.666-0.71
		c0.365-0.215,0.794-0.578,0.772-1.029c0.838-0.109,1.782,0.107,2.47,0.623c1.696,0.084,0.622-1.997,1.138-3.008v-0.149
		c0.3-0.064,0.666,0.149,0.987,0c0.344-0.234,0.301-0.902,0.88-0.772c0.28,0.516-0.129,0.965-0.064,1.502
		c0.086,0.496,1.03,0.15,0.667,0.773c-0.107,0.945-1.933,1.567-0.857,2.514c1.05,0.171,2.06-0.303,3.176,0
		c0.107,0.363-0.623,0.554-0.343,1.031c0.129,0.233,0.386,0.386,0.343,0.684c-0.365,0.194-0.989-0.021-1.116,0.516
		c-0.043,0.128-0.064,0.258-0.064,0.408c-0.988-0.022-1.89-0.858-2.835-1.288c-1.052,0.042-0.945,1.222-1.225,1.908
		c-0.127,1.163,0.666,1.936,1.59,2.469c1.287,0.517,2.747,0.605,3.864-0.256c0.666-0.623,1.18-1.502,1.03-2.381
		c0.085-0.172,0.215-0.301,0.408-0.345c0.343-0.086,0.602-0.063,0.88,0.149c0.236,0.13,0.236,0.559,0.15,0.816
		c-0.193,0.516-0.815,0.454-0.966,0.99c-0.257,0.838-0.365,1.912,0.45,2.512c1.309,1.007,2.879,0.818,4.188-0.042
		c0.579-0.557,0.923-1.202,1.289-1.849c-0.044-0.836-1.073-0.343-1.546-0.621c-0.343-0.451-1.479-0.129-1.202-0.881
		c0.365-0.365-0.13-1.05,0.688-0.924c0.363-0.191,0.149-0.75,0.514-0.771c0.664,0.236,1.31,0.493,1.89,0.967
		c1.137-0.215,0.966-1.545,1.544-2.256c0.452-1.438,1.998-1.545,3.092-2.017c0.495-0.063,1.332-0.127,1.654,0.258
		c0.192,0.256,0.516,0.558,0.321,0.839c-1.847-0.174-3.521,0.664-4.337,2.253c-0.88,2.19-1.201,5.217-3.971,6.032
		c-1.267,0.431-3.006,0.365-4.124-0.365c-0.665-0.386-1.028-1.097-1.544-1.653c-1.525,0.71-3.349,1.096-4.938,0.258
		c-0.709-0.365-0.901-1.568-1.911-1.289c-1.267,0.688-2.77,1.741-4.273,0.881c-0.71-0.194-0.988-1.268-1.869-0.924
		c-1.287,0.86-3.155,1.202-4.528,0.474c-0.624-0.368-1.29-0.752-1.804-1.246c-1.331-0.15-1.869,1.568-3.134,1.759
		c-1.481,0.518-2.985-0.191-4.081-1.094c-0.879-0.3-1.201,0.708-1.911,0.923c-1.243,0.515-2.641,0.428-3.689-0.407
		c-0.175-0.216-0.452-0.6-0.775-0.668c-0.451,0.218-0.6,0.819-0.987,1.183c-1.266,1.266-3.371,0.902-4.894,0.32
		c-0.301-0.258-0.729-0.364-1.074-0.32c-0.494,0.407-0.257,1.224-0.945,1.438c-1.115,0.795-3.069,0.579-4.316-0.044
		c-0.837-0.602-1.588-1.159-2.124-2.06c-1.374-1.825-1.289-4.787-4.016-5.562c-0.559-0.214-1.352,0-1.846-0.214
		c0.064-0.581,0.753-0.707,1.138-0.813c2.32-0.345,3.779,1.523,4.787,3.24c-0.021,0.257,0.28,0.431,0.452,0.557
		c0.815,0.366,1.353-0.578,1.911-0.963c0.151-0.021,0.473-0.193,0.515,0.105c-0.085,0.452,0.129,0.773,0.366,1.075
		c-0.172,0.235-0.066,0.493,0.042,0.73c0.107,0.127,0.322,0.212,0.322,0.406c-0.922,0.496-1.889,0.3-2.898,0.409
		c-0.515,0.687,0.279,1.203,0.515,1.759c0.967,1.268,2.557,1.675,3.93,1.375c1.267-0.172,1.588-1.566,1.912-2.576
		c-0.107-0.838-1.266-1.502-0.624-2.405c0.773,0.127,0.516,1.137,0.709,1.738c0.75,1.677,2.663,1.911,4.335,1.806
		c0.967-0.215,1.89-1.074,2.169-2.106c0.064-0.987-0.408-1.739-0.774-2.533c-0.213-0.173-0.578-0.108-0.836-0.042
		c-0.3,0.194-0.537,0.406-0.666,0.708c-0.601,0.236-1.093,0.687-1.803,0.687c0.021-0.298,0.043-0.751-0.364-0.881
		c-0.323,0.023-0.558-0.022-0.926-0.108c-0.041-0.579,1.203-1.309,0.151-1.801c1.203-0.43,2.234-0.174,3.414-0.472
		c0.709-0.667-0.45-0.966-0.622-1.546c0-0.408-0.924-1.032,0-1.225c0.343-0.407,0.193-0.817,0.365-1.289
		c0.58,0.128,1.03,0.751,1.695,0.518c0.472,0.835,0.15,2.102,0.472,2.875c0.731,0.644,1.332-0.666,2.212-0.516
		c0.364,0.064,0.514-0.128,0.878,0c-0.063,0.259-0.364,0.556-0.106,0.839c0.216,0.427,0.838,0.17,0.923,0.6
		c-0.299,0.237-0.88,0.174-0.923,0.686c-0.065,0.302,0.365,0.646-0.15,0.71c-0.88,0.343-1.395-0.901-2.125-0.105
		c-0.321,0.32-0.601,0.726-0.407,1.2c0.537,1.223,1.309,2.598,2.683,3.134c1.138,0.195,2.169-0.407,2.834-1.287
		c0.279-0.516,0.687-1.16,0.301-1.762c-0.26-0.345-0.538-0.879-0.193-1.286c0.108-0.13,0.151-0.346,0.342-0.41
		c0.301-0.043,0.452,0.192,0.518,0.41c0.17,1.114-0.387,2.252,0.472,3.154c0.75,0.858,1.866,1.353,3.048,0.965
		c1.009-0.193,2.125-0.924,2.728-1.846c0.235-0.731,0.364-1.567,0.3-2.362c-0.881-0.881-1.675,0.257-2.513,0.409
		c-0.472,0.173-0.966,0.279-1.502,0.301c-0.023-0.367,0.213-0.689,0.043-1.031c-0.303-0.45-1.032-0.321-1.117-0.881
		c0.322-0.386,0.965-0.214,1.117-0.815c0-0.235-0.151-0.432-0.193-0.667c1.137-0.193,2.124,0.129,3.199,0.454
		c0.322-0.109,0.558-0.345,0.708-0.667c0.149-1.053-0.188-1.754-0.274-2.696C94.337,47.833,94.136,46.764,93.884,46.634z
		 M125.36,44.563c0.343,1.072,0.472,2.748-0.323,3.605c-3.091-3.456-7.813-3.734-12.044-4.336c0-0.667,0.624-1.331,0.258-2.105
		c-0.193-0.408-0.688-0.794-1.202-0.773c-0.085-0.386,0.45-0.386,0.622-0.665c0.451-0.385,0.58-1.032,1.289-0.988
		c1.438-0.302,2.9-0.302,4.336,0C121.28,39.602,124.136,41.793,125.36,44.563z M75.207,39.709c0.173,0.41,0.816,0.773,0.945,1.184
		c-0.428,0.147-0.945,0.297-1.138,0.771c-0.216,0.623,0.13,1.117,0.366,1.611l-0.431,0.149c-4.058-0.149-7.922,2.02-10.712,5.004
		c-0.666-1.032-1.096-2.406-0.625-3.671c1.161-2.279,3.458-3.609,5.584-4.789c0.6-0.194,1.223-0.409,1.846-0.623
		C72.609,39.258,73.705,39.28,75.207,39.709z M77.333,45.378c0.128,0.559-0.365,0.751-0.622,1.094
		c-0.366-0.082-0.795-0.235-0.923-0.621c-0.085-0.279,0.022-0.602,0.193-0.838C76.368,44.348,77.118,44.906,77.333,45.378z
		 M112.264,45.378c0.129,0.534,0.022,1.117-0.257,1.544c-0.28,0.282-0.579,0.043-0.666-0.256c-0.322-0.364-0.236-1.051-0.108-1.482
		C111.512,44.926,112.155,44.948,112.264,45.378z M116.945,62.787c0.04,0.089,0.063,0.174,0.063,0.259
		c-0.279,0.237-0.644,0.043-0.923-0.042c-11.593-3.069-24.772-3.329-36.754-1.437c-2.663,0.32-5.176,0.943-7.88,1.394
		c-0.151-0.174,0.043-0.385,0.214-0.364c6.742-1.609,13.589-2.36,20.718-2.727C100.84,59.827,109.236,60.341,116.945,62.787z
		 M116.084,64.591c0.086,0.064,0.022,0.173,0.043,0.259c-0.644,0.407-1.567,0.195-2.017,0.986c-0.064,0.559,0.643,0.497,0.73,0.99
		c-2.532-0.3-5.369-0.837-8.095-1.139c-9.018-0.815-18.72-0.967-27.824,0.257c-1.933,0.214-3.735,0.752-5.603,1.137
		c0.021-0.492,0.922-0.879,0.515-1.501c-0.515-0.408-1.203-0.3-1.396-0.989c4.423-1.373,9.253-1.605,14.169-1.995
		C96.57,62.016,106.618,62.253,116.084,64.591z M97.106,62.855c0.278,0.428,0.385,1.093,0.108,1.547
		c-0.711,0.515-1.826,0.105-2.577,0.189c-1.268-0.02-2.963,0.107-3.972-0.084c0-0.472-0.215-1.031,0-1.396
		c0.449-0.429,1.181-0.256,1.76-0.364L97.106,62.855z M85.212,63.561c-0.022,0.432,0.087,1.138-0.473,1.289
		c-1.61-0.021-2.963,0.237-4.529,0.581c-0.236,0-0.515-0.107-0.558-0.365c-0.13-0.302-0.216-0.664-0.107-0.987
		c1.33-0.625,3.005-0.603,4.529-0.86C84.374,63.304,85.063,63.046,85.212,63.561z M108.034,63.736
		c0.301,0.149,0.301,0.578,0.215,0.855c-0.41,0.989-1.503,0.454-2.317,0.518c-0.646-0.237-1.804,0.13-2.213-0.518
		c-0.022-0.3-0.192-0.599-0.063-0.921c0.6-0.475,1.588-0.173,2.276-0.195L108.034,63.736z M45.021,66.462
		c0.086,0.707,0.237,1.201,0.257,1.952c-0.45,0.215-1.029-0.15-1.502-0.364c-0.386-0.13-0.298-0.539-0.449-0.817
		c0.02-0.343,0.215-0.708,0.557-0.839C44.207,66.267,44.744,66.203,45.021,66.462z M48.994,66.91
		c0.108,0.367,0.043,0.753-0.151,1.033c-0.364,0.321-0.771,0.471-1.243,0.471c-0.324-0.556-0.043-1.245-0.043-1.846
		C48.028,66.181,48.694,66.31,48.994,66.91z M145.24,66.826c0.085,0.859-0.623,1.288-1.288,1.588
		c-0.15-0.022-0.237,0.171-0.409,0.108c0.042-0.772-0.45-1.804,0.301-2.06C144.317,66.31,144.896,66.288,145.24,66.826z
		 M114.111,68.522c0.148,0.107,0.299,0.299,0.172,0.451c-2.149,0.215-3.973-0.516-6.034-0.773
		c-11.164-1.482-23.252-1.353-34.159,0.879c-0.107-0.043-0.3-0.086-0.256-0.258c-0.043-0.385,0.408-0.299,0.6-0.449
		c9.94-2.169,19.709-2.213,30.208-1.353C107.839,67.298,111.082,67.858,114.111,68.522z M141.375,66.976
		c-0.043,0.515,0.129,1.225-0.152,1.546c-0.663-0.13-1.414-0.322-1.694-0.989c-0.128-0.321-0.065-0.729,0.301-0.879
		C140.281,66.762,141.097,66.395,141.375,66.976z M137.662,68.629l0.989,1.031c-0.066,0.235-0.366,0.278-0.625,0.257
		c-0.471,0.021-0.836-0.193-1.138-0.579c-0.148-0.259,0.066-0.517,0.216-0.709C137.231,68.457,137.598,68.264,137.662,68.629z
		 M93.075,74.706v23.185c-1.825,0.431-2.968,0.753-4.535,1.823h-2.792v-7.098c0,0,0.591-0.164,0.915-0.146l0.16-4.775
		c-0.751-0.064-1.718,0.192-2.275-0.172c0.043-0.623-0.129-1.353,0.15-1.891c0.366-0.106,0.945,0.118,1.051-0.354v-3.596
		l-4.55-0.021c-0.128-0.862,0.203-2.287-0.323-2.791H75.38c-0.387,0.407,0.064,1.898-0.204,2.756h-4.348v3.758
		c0.32,0.45,0.709-0.054,1.03,0.399l-0.042,1.802l-1.954,0.107v4.668c0.256,0.173,0.6,0.165,0.965,0.253v7.098h-3.134l-0.034,6.015
		l17.015,0.042c-0.966,2.426-0.645,3.822-0.645,3.822H63.85V74.706C67.994,74.724,93.075,74.706,93.075,74.706z M124.608,74.706
		v34.888h-19.751c-0.023-4.468-2.555-8.998-6.548-10.886c-0.924-0.453-1.766-0.431-2.711-0.816V74.706H124.608z M114.218,77.323
		c0.256-0.151,0.514,0.066,0.729,0.151c0.192,0.323,0.257,0.689,0.558,0.945c0.473-0.064,0.988-0.194,1.182,0.298
		c0.259,0.454-0.216,1.096,0.321,1.332c0.409-0.021,0.773-0.149,1.137,0.107c0.108,0.217,0.216,0.474,0.086,0.731
		c-0.534,0.686-1.888,1.01-1.223,2.104c0.193,0.43,0.302,0.881,0.15,1.288c-0.213,0.259-0.493,0.345-0.773,0.473
		c-0.365,0.9,1.269,2.252-0.407,2.425c-0.257,0.256,0.214,0.516,0.193,0.815c0.299,0.882-1.31,0.882-0.559,1.761
		c-0.043,0.216-0.107,0.41-0.3,0.559c-0.259,0.086-0.559,0.021-0.731,0.258c0.344,1.393,1.204,2.941,2.62,3.565
		c0.708-0.066,1.461-0.495,1.719-1.205c0.385-1.739-0.56-3.22-0.689-4.895c-0.386-2.683-0.45-5.3,0.473-7.771
		c0.216-0.667,0.366-1.44,1.031-1.805c0.751,0.54,1.03-0.558,1.76-0.257c0.666,0.731-0.515,1.697,0.409,2.277
		c-0.152,0.921-0.731,1.674-1.095,2.511c-1.567,2.684-0.322,5.969,0.107,8.717c0.085,1.675-0.751,3.219-1.996,4.123
		c-0.495,0.386-1.223,0.428-1.548,0.964c0,1.526,2.146,1.332,2.062,2.897c-0.064,1.096-0.6,2.193-0.064,3.245
		c0.021,0.386-0.213,0.729-0.559,0.879c0.044,0.666,0.601,1.353,0.109,1.998c-0.817,0.493-1.482-0.408-2.127-0.668
		c-0.065,0.282-0.257,0.539-0.515,0.668c-0.365,0.064-0.709-0.194-0.816-0.515c-0.042-0.28-0.15-0.514-0.258-0.773
		c-0.343,0.063-0.643,0.427-1.03,0.214c-0.623-0.431-0.538-1.203-0.472-1.848c0.063-0.642,0.902-0.879,1.095-1.392
		c-1.031-0.39-2.362-0.561-2.642-1.871c-0.341-0.408,0.322-1.46-0.558-1.29c-0.579,0.54,0.043,1.225-0.15,1.913
		c-0.107,0.645-0.128,1.353-0.772,1.698c-0.751,0.277-1.868,0.405-2.319,1.394l-0.58,1.093c-0.151,0.323-0.559,0.431-0.881,0.302
		c-0.385-0.344-0.686-0.924-0.857-1.438c-0.301-0.065-0.6,0.514-0.988,0.299c-0.472-0.256-0.45-0.9-0.365-1.394
		c0.129-0.408,0.559-0.731,0.622-1.181c-0.213-0.127-0.857-0.108-0.771-0.558c0.042-0.643,0.666-0.858,1.073-1.247
		c0.687-0.191,1.481-0.256,2.231-0.149c0.323-0.407-0.192-0.818-0.17-1.287c0.064-0.754,0.194-1.544,0.987-1.912
		c0.495-0.278,1.095-0.259,1.545-0.624l-1.953-2.359c-0.815,0.881-1.932,1.2-2.942,1.695c-0.021,0.601,0.558,1.632-0.301,1.911
		c-0.943,0.237-1.416-0.881-2.06-1.289c-0.385,0.346-0.644,0.795-1.203,0.817c-0.279,0.021-0.645-0.131-0.665-0.451
		c0.02-0.817,0.471-1.438,0.73-2.17c-0.345-0.108-0.903,0.02-1.183-0.3c-0.429-0.623,0.235-0.966,0.559-1.352
		c0.773-0.668,1.975-0.947,2.942-0.517c0.944-0.129,1.782-0.645,2.426-1.439c0.15-0.257-0.066-0.557-0.322-0.621
		c-1.073-0.065-2.297,0-3.134-0.453c-0.472-0.643-0.753-1.5-1.546-1.866c-0.858-0.022-1.868,1.247-2.534,0.063
		c-0.193-0.578,0.108-1.244,0.258-1.801c-0.322-0.322-0.815,0.192-1.18-0.064c-0.151-0.108-0.367-0.194-0.367-0.455
		c0.388-1.091,1.031-2.229,1.955-2.937c0.924-0.474,2.188-0.26,3.047,0.191c0.753,0.688,1.288,1.569,1.848,2.384
		c1.18,1.246,2.403,2.383,4.036,2.577c0.451-0.065,0.946-0.258,1.182-0.621c-0.451-0.344-1.16-0.817-0.987-1.546l-0.151-0.107
		c-0.88,0.257-1.696,0.667-2.533,0.06c-0.794-0.384-1.158-1.349-1.89-1.801c-0.064-0.236,0.044-0.536,0.258-0.73
		c0.408-0.558,0.859-0.148,1.373-0.042c0.795,0.58,1.805,1.137,2.792,0.771c0.516-0.644-0.538-1.546,0.559-1.868
		c1.008-0.236,1.352-1.288,2.317-1.738c0.301-0.687-0.322-1.331-0.042-2.062c0.15-0.171,0.365-0.384,0.622-0.364
		C112.907,76.747,113.508,78.443,114.218,77.323z M46.846,92.747c-1.02,0.214-1.976,0.251-3.005,0.509
		c-0.473,0.041-1.114,0.297-1.543,0.297c0.067,0,0-11.324,0-11.324c0.202-0.271,4.308-0.325,4.548-0.028V92.747z M142.965,82.626
		l0.171,0.258l-0.018,10.241l-4.426-0.342l-0.155-0.198V82.69c1.396-0.256,2.924-0.064,4.34-0.064H142.965z M46.846,98.759v13.661
		c-1.395,0.836-2.813,1.382-4.293,2.003l-0.255-0.124V99.831c0.796-0.622,2.187-0.738,3.09-1.059
		c0.558,0.021,0.836-0.149,1.393-0.172L46.846,98.759z M142.976,98.965l0.143,0.15c0.043,4.724,0.129,9.208,0,14.232l-0.443,0.044
		c-1.376-0.643-2.685-1.396-4.016-2.104l-0.122-0.363V98.923c0.194-0.3,0.531-0.064,0.786-0.215
		C140.657,98.666,141.752,98.772,142.976,98.965z M65.687,112.419v27.546c-1.36-1.427-2.684-5.219-2.373-12.518l0.149-7.764
		l0.023-7.265H65.687z M72.449,112.419v33.854c-1.851-0.644-1.986-0.899-2.576-1.286v-32.568H72.449z M79.534,147.104
		c-0.712,0.16-1.912,0.212-2.576,0.041v-34.726h2.576V147.104z M124.119,112.419l0.038,20.445
		c-0.038,5.169-5.765,14.687-14.495,14.687c-9.59,0-14.313-9.874-14.313-14.735c0,0,0.04-1.84,0.019-9.483
		c0.944-0.194,1.932-0.516,2.877-0.858c-0.237,1.245,1.438,2.597-0.042,3.434c-0.452,0.967-0.108,2.105,0.45,2.898
		c0.171,0.751-0.344,1.095-0.558,1.698l0.15,1.955c0.387,0.663,1.051,1.5,0.408,2.274c-0.236,0.88-0.387,2.06,0.428,2.727
		c0.473,0.687,1.439,0.622,1.631,1.546c1.076,0.685,0.71,1.953,1.461,2.791c0.859,0.473,1.696,1.246,2.575,1.437
		c1.332,0.13,2.921-0.43,3.801,0.88c1.309,0.474,2.834-0.363,4.079-0.988c0.965-1.03,2.855-0.041,3.756-1.329l1.396-1.288
		c0.623-1.095,0.858-2.512,1.996-3.199c0.968-0.859,1.375-2.319,0.881-3.563c-0.258-1.072,0.474-1.825,0.363-2.77
		c0.045-0.753-0.234-1.46-0.621-2.06c0.151-0.495,0.58-0.752,0.837-1.204c0.58-1.051,0.174-2.083-0.515-2.984
		c-0.473-0.472,0.214-0.947,0.257-1.438c0-0.817,0.257-1.977-0.428-2.62c-0.515-1.46,1.588-2.062,0.988-3.671
		c-0.237-0.708-1.01-1.438-1.763-1.59c-1.395-0.341-2.06,1.226-3.393,0.923c-1.181-0.879-2.94-0.75-4.164-0.107
		c-1.074,0.282-1.546-1.479-2.749-1.222c-0.859,0.021-1.609,0.643-2.104,1.222c-0.407,0.043-0.814-0.172-1.18-0.364
		c-0.559-0.086-1.116,0.042-1.653-0.259c0.235-0.964,0.579-2.174,0.684-3.183H124.119z M106.231,116.85c0,0.6,0.214,1.03-0.15,1.503
		l-1.803-0.065c0-0.493-0.235-1.028,0-1.481C105.006,116.657,105.479,116.614,106.231,116.85z M115.656,116.85
		c0.215,0.514,0.043,1.01,0.065,1.503c-0.688,0.15-1.225,0.107-1.869,0.042c-0.215-0.428-0.215-1.202,0-1.588L115.656,116.85z
		 M84.138,117.364c0.516,0.989,1.396,1.848,2.063,2.792l-0.011,24.842c-0.645,0.601-1.599,1.01-2.417,1.182v-28.661
		C83.86,117.43,83.967,117.321,84.138,117.364z M143.118,119.434v14.986l-0.489,0.173l-4.077-0.109l-0.015-16.637
		c0.128-0.388,0.699,0.023,0.959,0.043L143.118,119.434z M46.846,133.85l-0.214,0.146h-4.146l-0.147-0.357l-0.041-13.542
		c1.353-0.925,3.046-1.466,4.527-2.216L46.846,133.85z M108.613,119.641c0.086,0.452-0.364,0.708-0.472,1.073
		c-0.022,0.472,0.28,1.051-0.043,1.396c-1.094-0.556-1.889-1.784-3.154-1.867c-0.237-0.237-0.623-0.388-0.71-0.71
		c0.71-0.321,1.912,0.494,2.32-0.516C107.282,118.802,108.228,118.888,108.613,119.641z M115.828,119.575
		c0.043,0.066,0.127,0.129,0.085,0.215c-0.344,0.303-0.988,0.065-1.332,0.194c-0.857,1.009-2.512,1.652-2.469,3.155
		c-0.148,0.067-0.191,0.367-0.407,0.367l-0.172-0.214c-0.063-0.86,0.367-2.147-0.3-2.987c-0.15-0.494,0.215-0.942,0.559-1.245
		C113.208,119.04,114.368,120.005,115.828,119.575z M119.884,121.442c0.259,0.474,0.195,1.332,0.065,1.891
		c-0.43,0-1.094,0.237-1.502,0c-0.151-0.559-0.151-1.332,0-1.891C119.07,121.442,119.392,121.4,119.884,121.442z M101.142,121.636
		l-0.063,1.656c-0.495,0.086-0.837,0.064-1.44,0.042c-0.278-0.406-0.105-1.159-0.15-1.74l0.15-0.15
		C100.004,121.51,100.819,121.271,101.142,121.636z M117.567,121.593c0.107,1.01-0.301,2.17,0.578,2.943
		c0.086,0.536-0.6,0.857-0.879,1.18c-0.901-0.794-1.566-0.279-2.641-0.473c-0.215,0.109-0.342,0.431-0.665,0.321
		c0.128-0.341,0.536-0.385,0.772-0.684c0.859-1.054,2.275-1.935,2.64-3.288H117.567z M103.203,123.247
		c0.581,0.667,1.417,1.011,1.955,1.805c-1.246-0.322-2.835,1.674-3.565-0.215c-0.235-1.223,0.859-2.04,0.474-3.2
		C102.946,121.743,102.816,122.712,103.203,123.247z M92.319,123.292c0.086,3.133,0.086,6.889,0,10.089
		c-0.301,2.104-1.105,4.77-2.051,6.572v-17.177C90.914,122.862,91.631,123.292,92.319,123.292z M103.805,128.85
		c0.45-0.021,1.161,0.021,1.612,0.152c-0.646,0.363-1.162,1.159-1.806,1.393c-0.986,0.732-0.621,2.193-1.801,2.643
		c-0.151-0.302,0.235-0.494,0.257-0.773c-0.172-0.967,0.364-2.016-0.257-2.791c-0.259-0.667,0.45-0.922,0.815-1.179
		C103.097,128.142,103.483,128.485,103.805,128.85z M118.083,129.066c0.021,0.579-0.645,0.878-0.56,1.481
		c-0.042,0.686-0.064,1.459,0.109,2.126c-0.151,0.171-0.238-0.086-0.366-0.109c-0.342-0.45-0.215-1.096-0.32-1.653
		c-0.624-0.751-1.396-1.674-2.471-1.803c-0.086-0.107-0.236-0.171-0.256-0.302c0.857-0.192,1.78,0.409,2.468-0.321
		C117.266,128.249,117.759,128.657,118.083,129.066z M119.949,130.288l-0.065,1.654c-0.493,0.043-1.094,0.173-1.588-0.108
		c-0.085-0.665-0.065-1.264,0.108-1.804C118.92,130.096,119.605,129.839,119.949,130.288z M101.142,132.158
		c-0.302,0.364-1.094,0.17-1.609,0.15c0-0.603-0.194-1.203-0.044-1.803c0.451,0,1.054-0.239,1.547,0L101.142,132.158z
		 M108.549,130.504c0.128,0.881,0.085,1.632-0.515,2.274c-0.171,1.227-0.429,2.791,0.408,3.865
		c-0.193,1.159,0.516,2.813-0.603,3.651c-0.514,0.215-0.472-0.493-0.772-0.73c-0.75-0.471-1.503-0.946-2.168-1.588
		c-0.538-0.194-1.159,0.021-1.438-0.56c0.214-1.266-0.646-3.135,1.116-3.778c0.686,0.064,1.138,0.171,1.717-0.15
		c0.794-0.858,1.76-1.503,1.803-2.683C108.249,130.719,108.335,130.439,108.549,130.504z M112.372,132.264
		c0.943,0.601,1.545,2.125,2.94,1.889c0.707,0.431,0.966,1.182,0.966,1.977c0.172,0.234,0.387,0.579,0.151,0.858
		c-0.195,0.259-0.494,0.259-0.773,0.322c-0.966,0.965-2.469,1.546-2.77,2.984c-0.645,0.408-0.966-0.603-1.503-0.73v-3.178
		c0.988-1.138,0.686-2.726,0.666-4.122c-0.194-0.495-0.902-0.879-0.559-1.459C112.134,130.976,112.221,131.705,112.372,132.264z
		 M50.228,138.756h-8.301c0-0.832,0-0.868,4.128-0.868C50.156,137.888,50.228,137.888,50.228,138.756z M146.339,139.171h-8.301
		c0-0.834,0-0.868,4.128-0.868C146.267,138.303,146.339,138.303,146.339,139.171z M116.86,139.67l-1.291,1.137
		c-0.406-0.278-0.901-0.773-1.03-1.284l1.374-1.186C116.257,138.813,116.945,139.028,116.86,139.67z M105.779,140.337
		c-0.129,0.492-0.342,0.9-0.686,1.289c-0.602-0.064-1.246-0.538-1.631-1.03c0.148-0.451,0.428-0.904,0.771-1.225
		C104.771,139.627,105.307,139.907,105.779,140.337z M46.419,146.326c2.575-0.578,5.194-1.245,7.835-0.15
		c0.815,0.493,2.147-0.236,2.576,0.816c-0.302,0.663,0.192,1.782-0.516,2.32c-2.576-0.175-4.809-1.658-7.579-0.881
		c-2.511,0.836-5.518,0.729-7.879-0.3c-1.652-0.259-3.585,0.128-5.151,0.664c-0.947-0.171-0.302-1.332-0.431-1.912
		c0.193-1.05,1.268-0.814,2.019-1.135C40.32,144.438,43.196,147.143,46.419,146.326z M152.497,146.519
		c0.323,0.688,0.281,1.718,0.064,2.426c-0.644,0.558-1.288-0.256-2.018-0.191c-1.847-0.322-3.67-0.129-5.561,0.343
		c-4.186,0.537-8.737-1.16-12.58,0.685c-0.323,0.065-0.537-0.104-0.773-0.257c-0.343-0.62,0.021-1.438-0.086-2.017
		c0-0.278,0.149-0.538,0.407-0.663c2.04-0.455,4.058-1.203,6.119-0.839c1.761,0.431,3.648,0.622,5.324,0.431
		C146.335,146.239,149.75,145.168,152.497,146.519z M43.111,149.524c2.749,0.625,5.367-0.75,8.052-0.428
		c1.61,0.406,3.5,0.729,5.195,0.685c0.558,0.474,0.215,1.442,0.301,2.15c-0.107,0.192-0.193,0.533-0.516,0.47
		c-2.189,0.345-4.293-0.921-6.526-0.47c-2.211,0.32-4.896,0.751-7.128,0.062c-1.954-0.471-4.358-0.771-6.441-0.062
		c-0.259,0.105-0.838,0.105-0.925-0.346c0.217-0.772-0.085-1.864,0.666-2.317c1.847-0.772,4.23-1.225,5.99-0.216L43.111,149.524z
		 M152.561,150.042l0.193,0.257c-0.15,0.879,0.172,1.998-0.516,2.62c-0.493,0.15-0.729-0.343-1.179-0.301
		c-2.32-0.515-4.832-0.408-7.064,0.086c-2.771,0.535-5.324-0.579-8.031-0.042c-1.331,0.235-2.939,0.429-4.271,0.042
		c-0.516-0.514-0.107-1.374-0.149-2.062c0.299-0.707,0.836-0.171,1.374-0.407c2.211-0.644,4.552-1.138,6.805-0.558
		C143.887,150.427,148.611,148.086,152.561,150.042z M94.297,46.259c0.845,0,1.171-0.911,1.301-1.682c0,0-0.419-6.605-1.26-6.605
		c-0.931,0-1.262,6.605-1.262,6.605C93.245,45.221,93.665,46.259,94.297,46.259z M85.437,110.327c0-5.619,3.954-10.171,8.829-10.171
		c4.876,0,8.829,4.552,8.829,10.171c0,5.619-3.953,10.172-8.829,10.172C89.391,120.499,85.437,115.945,85.437,110.327z
		 M95.598,112.277c0.301,0.537,0.807,0.347,1.195,0.59c1.138-0.129,1.606,0.199,2.058,1.142c0.194,0.646,0.246,1.767-0.184,2.348
		c-0.687,0.428-1.382-0.91-2.134-0.478c-0.946,0.709-0.762,2.167-0.935,3.24h-2.522c-0.129-0.816,0.13-1.932-0.45-2.618
		c-0.177-0.273-0.3-0.894-1.095-0.515c-0.258,0.193-0.559,0.515-0.881,0.452c-0.259-0.172-0.644-0.452-0.558-0.773
		c0.022-1.204,0.644-2.304,1.804-2.797c0.472-0.15,0.986,0.026,1.246-0.488c0.192-0.88,0.364-2.321,1.288-2.321
		C95.169,110.058,95.411,111.282,95.598,112.277z M101.056,105.276c0.3,0.536,0.805,0.348,1.195,0.592
		c1.136-0.129,1.606,0.197,2.058,1.14c0.192,0.646,0.246,1.767-0.185,2.347c-0.687,0.428-1.384-0.908-2.135-0.477
		c-0.942,0.706-0.761,2.166-0.933,3.24h-2.521c-0.129-0.816,0.127-1.932-0.451-2.619c-0.177-0.273-0.3-0.896-1.096-0.515
		c-0.257,0.193-0.559,0.515-0.88,0.452c-0.258-0.173-0.644-0.452-0.559-0.774c0.022-1.202,0.645-2.304,1.803-2.793
		c0.474-0.152,0.988,0.025,1.246-0.492c0.194-0.878,0.365-2.317,1.29-2.317C100.626,103.06,100.868,104.282,101.056,105.276z
		 M90.563,105.186c0.3,0.537,0.804,0.351,1.193,0.589c1.138-0.127,1.607,0.201,2.058,1.146c0.194,0.646,0.246,1.764-0.184,2.344
		c-0.686,0.428-1.383-0.905-2.133-0.478c-0.945,0.71-0.765,2.169-0.934,3.242h-2.523c-0.13-0.815,0.129-1.933-0.451-2.618
		c-0.177-0.271-0.298-0.894-1.095-0.514c-0.257,0.19-0.559,0.514-0.88,0.448c-0.259-0.171-0.646-0.448-0.559-0.772
		c0.022-1.201,0.645-2.302,1.803-2.797c0.474-0.148,0.988,0.029,1.246-0.489c0.193-0.878,0.364-2.316,1.289-2.316
		C90.133,102.97,90.375,104.193,90.563,105.186z M80.381,85.668c-0.297,0-0.536,0.004-0.536,0.299v1.424
		c0,0.296,0.239,0.344,0.536,0.344s0.537-0.006,0.537-0.303v-1.449C80.918,85.685,80.679,85.668,80.381,85.668z M76.088,85.641
		c-0.296,0-0.536,0.005-0.536,0.303v1.423c0,0.295,0.24,0.339,0.536,0.339s0.537-0.003,0.537-0.3v-1.45
		C76.625,85.658,76.384,85.641,76.088,85.641z M75.034,95.208c0,0,1.072,0.085,1.072-0.253l-0.018-1.666
		c0.004,0.002,0.118-1.411-1.092-1.411c-1.131,0-1.038,1.381-1.038,1.381v1.681C73.958,95.281,75.034,95.208,75.034,95.208z
		 M80.059,103.971c0,0,0.058-1.67-0.017-1.908c-0.077-0.241-0.586-1.153-1.817-1.153c-1.131,0-1.681,0.936-1.762,1.12
		c-0.08,0.182,0,1.94,0,1.94H80.059z M81.459,95.208c0,0,1.073,0.085,1.073-0.253l-0.017-1.666c0.004,0.002,0.118-1.411-1.093-1.411
		c-1.13,0-1.038,1.381-1.038,1.381v1.681C80.386,95.281,81.459,95.208,81.459,95.208z M93.471,151.357
		c-1.576,0.073-3.158-0.27-4.874-0.355c-2.083-0.322-4.037-0.517-5.97-1.224c0.86-0.513,1.847-0.88,2.792-1.286
		c3.565-1.526,6.956-4.767,8.138-8.459c2.426,4.209,6.869,8.78,11.786,9.53c-0.901,0.645-2.19,0.731-3.349,1.032
		c-2.727,0.47-5.219,0.794-8.136,0.73L93.471,151.357z M94.08,151.289c0.34-0.127,0.84-0.108,1.075-0.665l-0.02-0.662
		c1.458-0.407,3.09-0.626,4.184-1.807c0.131-0.322,0.023-0.75-0.298-0.924c-1.052-0.064-2.02-0.105-3.05,0.045
		c0.515-0.539,1.03-1.226,0.838-2.062c-0.303-0.967-1.289-2.083-2.384-2.212c-1.009-0.15-2.168,0.129-2.834,1.031
		c-0.492,0.6-0.751,1.353-0.557,2.17c0.193,0.535,0.708,0.923,0.922,1.438c-0.559-0.149-1.331-0.302-1.909-0.452
		c-0.56-0.021-1.333,0-1.655,0.602c-0.064,0.73,0.774,0.794,1.14,1.204c1.178,0.493,2.082,0.986,3.348,1.07
		c-0.063,0.471,0.043,0.989,0.515,1.137L94.08,151.289z M108.269,127.09c0-1.006,0.817-1.822,1.822-1.822
		c1.006,0,1.821,0.816,1.821,1.822c0,1.008-0.815,1.821-1.821,1.821C109.086,128.911,108.269,128.098,108.269,127.09z
		 M108.805,141.545c0-0.67,0.544-1.216,1.216-1.216c0.669,0,1.215,0.546,1.215,1.216c0,0.668-0.545,1.214-1.215,1.214
		C109.349,142.759,108.805,142.214,108.805,141.545z M117.322,135.39c0-0.672,0.543-1.214,1.216-1.214
		c0.67,0,1.212,0.542,1.212,1.214c0,0.672-0.542,1.215-1.212,1.215C117.865,136.605,117.322,136.062,117.322,135.39z
		 M118.325,126.802c0-0.669,0.545-1.213,1.214-1.213c0.672,0,1.215,0.544,1.215,1.213c0,0.672-0.543,1.216-1.215,1.216
		C118.87,128.018,118.325,127.474,118.325,126.802z M118.325,117.571c0-0.669,0.545-1.211,1.214-1.211
		c0.672,0,1.215,0.542,1.215,1.211c0,0.671-0.543,1.213-1.215,1.213C118.87,118.784,118.325,118.242,118.325,117.571z
		 M108.448,117.499c0-0.671,0.543-1.213,1.214-1.213c0.67,0,1.213,0.542,1.213,1.213c0,0.67-0.542,1.215-1.213,1.215
		C108.991,118.714,108.448,118.169,108.448,117.499z M98.93,127.017c0-0.67,0.543-1.213,1.214-1.213c0.67,0,1.215,0.543,1.215,1.213
		s-0.544,1.216-1.215,1.216C99.474,128.232,98.93,127.687,98.93,127.017z M99.359,135.747c0-0.671,0.543-1.215,1.214-1.215
		c0.67,0,1.214,0.544,1.214,1.215c0,0.674-0.544,1.216-1.214,1.216C99.903,136.963,99.359,136.421,99.359,135.747z M41.901,69.055
		c0.128,0.365-0.172,0.496-0.408,0.624c-0.321,0.128-0.667-0.064-0.837-0.366c-0.109-0.493,0.193-0.792,0.32-1.178
		C41.45,68.134,41.601,68.731,41.901,69.055z M51.434,68.905c0,0.257-0.215,0.343-0.41,0.515c-0.278,0.021-0.643,0-0.88-0.213
		c-0.085-0.344,0.214-0.666,0.409-0.989C50.897,68.349,51.283,68.52,51.434,68.905z M147.58,68.905c0,0.257-0.216,0.343-0.408,0.515
		c-0.278,0.021-0.645,0-0.88-0.213c-0.086-0.344,0.214-0.666,0.408-0.989C147.042,68.349,147.43,68.52,147.58,68.905z
		 M87.097,63.828c0-0.448,0.363-0.811,0.811-0.811c0.447,0,0.808,0.363,0.808,0.811c0,0.445-0.361,0.808-0.808,0.808
		C87.46,64.635,87.097,64.273,87.097,63.828z M99.907,63.828c0-0.448,0.361-0.811,0.811-0.811c0.446,0,0.808,0.363,0.808,0.811
		c0,0.445-0.362,0.808-0.808,0.808C100.269,64.635,99.907,64.273,99.907,63.828z M110.463,64.972c0-0.448,0.363-0.811,0.808-0.811
		c0.449,0,0.812,0.362,0.812,0.811c0,0.446-0.362,0.808-0.812,0.808C110.826,65.779,110.463,65.418,110.463,64.972z M76.147,65.109
		c0-0.446,0.363-0.808,0.811-0.808s0.809,0.362,0.809,0.808c0,0.448-0.362,0.809-0.809,0.809S76.147,65.557,76.147,65.109z
		 M146.053,82.639c0,0-0.038,10.51,0,10.439c-0.13,0.194-0.522,0.23-0.715,0.142l-0.086-0.192V82.613
		C145.444,82.463,145.851,82.504,146.053,82.639z M146.053,100.16v14.291c-0.269,0.606-0.551,0.323-0.555,0.323l-0.085-14.054
		c-0.022-0.217-0.022-0.602,0.192-0.731C145.798,99.964,145.923,100.031,146.053,100.16z M145.87,120.734v13.87
		c-0.25,0.562-0.633,0.127-0.532,0.102l-0.086-13.749c0.043-0.234,0.145-0.19,0.294-0.275
		C145.681,120.655,145.708,120.627,145.87,120.734z M49.896,81.78c0,0-0.037,10.51,0,10.44c-0.128,0.193-0.521,0.227-0.715,0.141
		l-0.084-0.192V81.756C49.291,81.607,49.696,81.645,49.896,81.78z M49.896,98.353v12.302c-0.085,0.191-0.337,0.278-0.553,0.321
		L49.257,98.91c-0.021-0.217-0.021-0.601,0.193-0.729C49.644,98.16,49.768,98.223,49.896,98.353z M49.713,116.934v16.761
		c-0.231,0.525-0.604,0.12-0.531,0.102l-0.084-16.637c0.042-0.238,0.145-0.193,0.295-0.278
		C49.525,116.855,49.554,116.828,49.713,116.934z M51.051,75.634c0.824,0,0.824,0,0.824-0.824c0-0.823,0-0.823-0.824-0.823h-9.982
		c-0.823,0-0.823,0-0.823,0.823c0,0.824,0,0,0,0c0,0.824,0,0.824,0.823,0.824H51.051z M51.051,142.333c0.824,0,0.824,0,0.824-0.822
		c0-0.823,0-0.823-0.824-0.823h-9.982c-0.823,0-0.823,0-0.823,0.823c0,0.822,0,0,0,0c0,0.822,0,0.822,0.823,0.822H51.051z
		 M49.866,78.068c0.216,0,0.362-0.096,0.362-0.235c0-0.154-0.146-0.23-0.362-0.23h-7.568c-0.232,0-0.371,0.104-0.371,0.23
		c0,0.102,0.125,0.235,0.357,0.235H49.866z M50.82,80.249c0.087,0,0.16-0.07,0.16-0.158c0-0.089-0.072-0.163-0.16-0.163h-9.501
		c-0.089,0-0.163,0.074-0.163,0.163c0,0.088,0.074,0.158,0.163,0.158H50.82z M50.82,136.208c0.087,0,0.16-0.069,0.16-0.158
		c0-0.091-0.072-0.164-0.16-0.164h-9.501c-0.089,0-0.163,0.073-0.163,0.164c0,0.088,0.074,0.158,0.163,0.158H50.82z
		 M147.161,142.749c0.823,0,0.823,0,0.823-0.824c0-0.821,0-0.821-0.823-0.821h-9.981c-0.824,0-0.824,0-0.824,0.821c0,0.824,0,0,0,0
		c0,0.824,0,0.824,0.824,0.824H147.161z M146.983,136.625c0.089,0,0.161-0.07,0.161-0.161c0-0.088-0.072-0.162-0.161-0.162h-9.5
		c-0.089,0-0.16,0.074-0.16,0.162c0,0.09,0.071,0.161,0.16,0.161H146.983z M147.34,75.634c0.824,0,0.824,0,0.824-0.824
		c0-0.823,0-0.823-0.824-0.823h-9.984c-0.822,0-0.822,0-0.822,0.823c0,0.824,0,0,0,0c0,0.824,0,0.824,0.822,0.824H147.34z
		 M146.156,78.068c0.214,0,0.364-0.096,0.364-0.235c0-0.154-0.15-0.23-0.364-0.23h-7.569c-0.232,0-0.369,0.104-0.369,0.23
		c0,0.102,0.124,0.235,0.357,0.235H146.156z M147.107,80.249c0.09,0,0.163-0.07,0.163-0.158c0-0.089-0.073-0.163-0.163-0.163h-9.499
		c-0.088,0-0.161,0.074-0.161,0.163c0,0.088,0.073,0.158,0.161,0.158H147.107z M43.814,70.481c2.241-0.706,2.241-0.706,4.562,0
		H43.814z M139.96,70.481c2.242-0.706,2.242-0.706,4.564,0H139.96z M49.139,93.763c-0.601,1.159-0.774,2.491-1.181,3.715
		c-0.321,0.32-0.537-0.195-0.687-0.411c-0.602-0.965-1.073-2.039-1.544-2.983c0.212-0.196,0.686-0.064,0.943-0.108
		c0.172,0.882,0.666,1.846,1.33,2.534c0.196-0.879,0.946-1.824,0.365-2.683C48.625,93.806,48.881,93.634,49.139,93.763z
		 M52.747,94.084c0.236,0.3,0,0.646,0,0.966c-0.408,0.02-0.473-0.623-0.73-0.858c-0.321-0.215-0.773-0.257-1.18-0.172
		c-0.279,0.236-0.344,0.644-0.149,0.945c0.729,0.514,2.361,0.514,2.06,1.845c-0.043,0.322-0.302,0.601-0.579,0.775
		c-0.859,0.493-1.547-0.539-2.32-0.106c-0.214-0.389-0.021-0.689,0.065-1.075c0.429,0.257,0.558,0.945,1.073,1.181
		c0.386,0.064,0.9,0.15,1.137-0.257c0.236-0.539-0.214-0.903-0.623-1.073c-0.515-0.195-1.159-0.324-1.438-0.881
		c-0.128-0.451-0.021-0.924,0.3-1.247C51.093,93.506,51.953,94.256,52.747,94.084z M43.73,94.493
		c-0.151,1.116,0.364,2.21,0.622,3.306c0.234,0.279,0.58,0.15,0.859,0.045c0.474-0.344,0.581-0.797,0.772-1.247
		c0.258,0.235,0.366,0.6,0.323,0.988l-0.15,0.15l-2.792,0.622c0.171-1.116-0.365-2.21-0.559-3.306l-0.321-0.298
		C42.87,94.577,43.322,94.427,43.73,94.493z M42.185,96.081c0.171,0.43-0.087,0.773-0.323,1.094
		c-0.43,0.236-0.752,0.346-1.227,0.516c-0.02,0.559,0.259,1.224,0.668,1.589c-0.365,0.129-0.668,0.406-1.075,0.365
		c-0.062-1.139-0.836-2.146-1.136-3.241c-0.087-0.195-0.345-0.149-0.323-0.366C39.908,95.887,41.368,94.686,42.185,96.081z
		 M41.41,96.597c-0.042,0.299-0.083,0.621-0.365,0.771c-0.965,0.496-0.816-0.9-1.181-1.373c0.044-0.364,0.474-0.172,0.667-0.364
		C41.045,95.673,41.326,96.146,41.41,96.597z M143.448,94.307c0.321,0.192,0.042,0.579,0.063,0.879
		c-0.278-0.064-0.407-0.578-0.623-0.879c-0.247-0.136-0.294,0-0.529-0.043c-0.235,1.094-0.327,2.168-0.501,3.282
		c0.044,0.11,0.109,0.195,0.109,0.324c-0.409,0.043-0.794,0.15-1.14-0.107l0.258-0.515l0.366-2.985
		c-0.345-0.665-0.989,0.299-0.989,0.299c-0.191,0.087-0.191,0.494-0.449,0.323c0.085-0.364-0.107-0.946,0.405-0.986L143.448,94.307z
		 M137.779,94.048c-0.365,1.052-0.129,2.34-0.192,3.498c0.171,0.368,0.687,0.24,0.921,0.11c0.582,0.021,0.815-1.415,1.139-0.557
		c-0.15,0.257,0.107,0.835-0.408,0.771l-2.791-0.065c0.471-0.988,0.171-2.318,0.259-3.499l-0.259-0.194
		C136.854,93.962,137.328,93.854,137.779,94.048z M135.567,94.198c-0.751,1.138-0.6,2.641-1.137,3.865l-0.344-0.085
		c-0.687-1.094-1.245-2.254-2.018-3.306c0.299-0.214,0.794-0.214,1.139-0.214c-0.022,0.964,0.816,1.696,1.224,2.534
		c0.429-0.174,0.193-0.603,0.364-0.988c0-0.582,0.473-1.224,0-1.739C135.009,94.136,135.332,94.136,135.567,94.198z M147.525,95.596
		c0.151,0.429-0.086,0.922-0.515,1.093c-0.193,0.128-0.535-0.108-0.666,0.194c0.452,0.387,0.43,0.965,0.408,1.546l0.258,0.215
		c-0.149,0.256-0.558,0.214-0.816,0.106c-0.623-0.645,0.45-2.062-0.946-2.126c-0.257,0.516-0.535,1.139-0.343,1.698
		c-0.386,0-0.987,0.064-1.245-0.302l0.365-0.407l0.708-2.792l-0.085-0.364C145.7,94.757,146.838,94.608,147.525,95.596z
		 M146.71,95.399c-0.065,0.389-0.044,0.818-0.43,1.075c-0.321-0.042-0.774,0.107-0.923-0.215c0.149-0.471,0.085-1.095,0.472-1.438
		C146.13,94.95,146.666,94.907,146.71,95.399z M150.66,96.733c0,1.329-0.149,2.749-0.257,4.077c-0.322,0-0.666-0.19-0.966-0.428
		c0.3-0.324,0.3-0.817,0.193-1.224c-0.451-0.153-0.923-0.58-1.375-0.408c-0.256,0.194-0.407,0.515-0.256,0.815
		c-0.322,0.195-0.494-0.193-0.772-0.214c-0.108-0.346,0.534-0.321,0.772-0.601l2.404-2.126L150.66,96.733z M149.694,98.793
		c-0.322,0.151-0.624-0.043-0.88-0.214c-0.108-0.473,0.558-0.731,0.88-1.033C149.78,97.827,149.758,98.407,149.694,98.793z
		 M40.126,101.372c0.021,0.086,0,0.194-0.085,0.257c-0.236-0.235-0.944-0.148-0.688-0.685c0.108-0.302,0.43-0.452,0.73-0.517
		C40.256,100.749,40.169,101.03,40.126,101.372z M148.534,101.685c0.128,0.386-0.086,0.753-0.366,1.029
		c-0.15,0.088-0.407,0.259-0.576,0.046v-1.502C147.936,101.236,148.275,101.492,148.534,101.685z M136.642,109.546
		c0.065,0.235,0.042,0.319-0.109,0.424c-0.373-0.075-0.373-0.262-0.365-0.62C136.316,109.091,136.749,109.164,136.642,109.546z
		 M147.835,123.042c0.031,0.118,0.004,0.111-0.07,0.166c-0.186-0.039-0.171-0.083-0.168-0.264
		C147.673,122.815,147.889,122.85,147.835,123.042z M109.984,135.747c0.455,0,0.823-0.369,0.823-0.823v-1.861
		c0-0.455-0.368-0.822-0.823-0.822c-0.455,0-0.823,0.368-0.823,0.822v1.861C109.161,135.378,109.53,135.747,109.984,135.747z
		 M107.117,127.09c0-0.455-0.368-0.823-0.824-0.823h-1.859c-0.455,0-0.824,0.369-0.824,0.823c0,0.454,0.369,0.822,0.824,0.822h1.859
		C106.75,127.912,107.117,127.543,107.117,127.09z M116.921,127.09c0-0.455-0.368-0.823-0.824-0.823h-1.86
		c-0.454,0-0.822,0.369-0.822,0.823c0,0.454,0.368,0.822,0.822,0.822h1.86C116.554,127.912,116.921,127.543,116.921,127.09z
		 M115.84,132.766c0.321-0.321,0.321-0.842,0-1.164l-1.316-1.314c-0.321-0.321-0.842-0.321-1.164,0
		c-0.321,0.322-0.321,0.841,0,1.162l1.317,1.316C114.998,133.087,115.517,133.087,115.84,132.766z M113.289,123.82
		c-0.321-0.32-0.321-0.842,0-1.163l1.316-1.316c0.321-0.322,0.843-0.322,1.163,0c0.322,0.322,0.322,0.842,0,1.165l-1.315,1.315
		C114.131,124.142,113.609,124.142,113.289,123.82z M107.109,124.25c0.323-0.321,0.323-0.844,0-1.166l-1.315-1.315
		c-0.322-0.32-0.842-0.32-1.164,0c-0.321,0.322-0.321,0.844,0,1.163l1.315,1.318C106.266,124.573,106.788,124.573,107.109,124.25z
		 M106.751,130.144c-0.322-0.322-0.842-0.322-1.165,0l-1.315,1.313c-0.322,0.322-0.322,0.843,0,1.167
		c0.321,0.319,0.843,0.319,1.165,0l1.315-1.319C107.073,130.986,107.073,130.463,106.751,130.144z M109.984,124.118
		c0.455,0,0.823-0.369,0.823-0.822v-1.86c0-0.455-0.368-0.825-0.823-0.825c-0.455,0-0.823,0.37-0.823,0.825v1.86
		C109.161,123.75,109.53,124.118,109.984,124.118z"/>
</g>
</svg>
